<svg width="289" height="181" viewBox="0 0 289 181" fill="none" xmlns="http://www.w3.org/2000/svg">
<path d="M48.1846 179.237C48.1846 179.237 6.13767 170.557 3.99523 139.884C1.52794 104.584 35.4615 104.193 30.2555 78.6037C22.9893 42.8872 36.0002 16.4905 67.8366 17.9586C94.6808 19.195 118.519 46.2657 132.883 27.3986C148.369 7.0505 177.344 -7.98306 206.014 4.62075C234.684 17.2246 230.46 58.1741 250.285 66.8757C305.717 88.5889 298.854 177.777 234.182 179.554C219.9 179.881 58.8227 179.262 48.1846 179.237Z" fill="#003681"/>
<path d="M257.21 60.703C257.21 60.703 249.438 45.0641 262.704 37.5388C276.981 29.4339 287.928 44.4889 284.556 56.8866C281.184 69.2801 261.347 68.7306 257.21 60.703Z" fill="#003681"/>
<path d="M11.6603 72.2463C-1.44925 60.1362 24.6712 47.8372 24.1449 65.1545C23.3142 68.9107 18.6634 77.153 11.6603 72.2463Z" fill="#003681"/>
<path d="M230.14 179.366C226.685 179.619 212.733 179.851 215.204 167.518C217.63 158.009 204.43 158.309 208.37 149.123C209.32 145.645 205.043 146.835 204.216 141.597C203.39 136.364 206.519 131.986 211.931 132.011C217.342 132.041 216.129 137.901 217.894 140.065C219.658 142.228 222.388 140.236 224.197 145.396C226.114 152.656 222.89 153.54 228.774 157.129" stroke="#C7E0F4" stroke-miterlimit="10"/>
<mask id="path-5-inside-1_541_50964" fill="white">
<path d="M224.329 165.337C221.656 159.657 218.823 154.055 215.854 148.539C214.846 146.667 213.822 144.808 212.782 142.958C212.58 142.602 212.05 142.924 212.247 143.284C215.582 149.226 218.757 155.266 221.755 161.4C222.446 162.817 223.124 164.233 223.798 165.659C223.971 166.036 224.502 165.71 224.329 165.337Z"/>
</mask>
<path d="M224.329 165.337C221.656 159.657 218.823 154.055 215.854 148.539C214.846 146.667 213.822 144.808 212.782 142.958C212.58 142.602 212.05 142.924 212.247 143.284C215.582 149.226 218.757 155.266 221.755 161.4C222.446 162.817 223.124 164.233 223.798 165.659C223.971 166.036 224.502 165.71 224.329 165.337Z" fill="#D4A5CF"/>
<path d="M224.329 165.337L225.237 164.917L225.234 164.911L224.329 165.337ZM215.854 148.539L216.734 148.065L216.734 148.065L215.854 148.539ZM212.782 142.958L213.654 142.468L213.652 142.466L212.782 142.958ZM212.247 143.284L211.37 143.765L211.375 143.774L212.247 143.284ZM221.755 161.4L222.654 160.962L222.653 160.961L221.755 161.4ZM223.798 165.659L224.708 165.243L224.702 165.231L223.798 165.659ZM225.234 164.911C222.553 159.214 219.711 153.596 216.734 148.065L214.973 149.013C217.934 154.514 220.759 160.1 223.424 165.763L225.234 164.911ZM216.734 148.065C215.724 146.187 214.697 144.323 213.654 142.468L211.91 143.448C212.948 145.293 213.969 147.147 214.973 149.013L216.734 148.065ZM213.652 142.466C213.466 142.137 213.154 141.898 212.773 141.826C212.419 141.758 212.09 141.849 211.845 141.998C211.353 142.297 210.963 143.021 211.37 143.765L213.125 142.804C213.206 142.953 213.233 143.154 213.168 143.348C213.11 143.52 212.998 143.638 212.885 143.707C212.773 143.775 212.603 143.829 212.398 143.79C212.167 143.746 211.997 143.601 211.911 143.45L213.652 142.466ZM211.375 143.774C214.701 149.699 217.867 155.722 220.856 161.839L222.653 160.961C219.647 154.809 216.463 148.752 213.119 142.795L211.375 143.774ZM220.856 161.839C221.545 163.251 222.221 164.664 222.895 166.086L224.702 165.231C224.027 163.803 223.346 162.383 222.654 160.962L220.856 161.839ZM222.889 166.074C223.044 166.414 223.341 166.698 223.75 166.794C224.127 166.882 224.471 166.782 224.715 166.633C225.194 166.34 225.576 165.651 225.237 164.917L223.421 165.756C223.255 165.396 223.457 165.057 223.672 164.926C223.783 164.858 223.973 164.792 224.207 164.847C224.473 164.909 224.639 165.092 224.708 165.243L222.889 166.074Z" fill="#C7E0F4" mask="url(#path-5-inside-1_541_50964)"/>
<mask id="path-7-inside-2_541_50964" fill="white">
<path d="M210.512 153.514C212.811 153.763 215.11 154.012 217.408 154.261C217.737 154.295 218.07 154.334 218.399 154.368C218.794 154.411 218.79 153.767 218.399 153.725C216.101 153.476 213.802 153.227 211.503 152.978C211.174 152.943 210.841 152.905 210.512 152.87C210.118 152.827 210.122 153.471 210.512 153.514Z"/>
</mask>
<path d="M210.512 153.514C212.811 153.763 215.11 154.012 217.408 154.261C217.737 154.295 218.07 154.334 218.399 154.368C218.794 154.411 218.79 153.767 218.399 153.725C216.101 153.476 213.802 153.227 211.503 152.978C211.174 152.943 210.841 152.905 210.512 152.87C210.118 152.827 210.122 153.471 210.512 153.514Z" fill="#D4A5CF"/>
<path d="M210.512 153.514L210.403 154.508L210.405 154.508L210.512 153.514ZM217.408 154.261L217.301 155.255L217.305 155.256L217.408 154.261ZM218.399 154.368L218.508 153.374L218.503 153.374L218.399 154.368ZM218.399 153.725L218.509 152.73L218.507 152.73L218.399 153.725ZM211.503 152.978L211.611 151.983L211.607 151.983L211.503 152.978ZM210.512 152.87L210.404 153.864L210.408 153.865L210.512 152.87ZM210.405 154.508C211.554 154.633 212.703 154.757 213.853 154.882C215.002 155.006 216.151 155.131 217.301 155.255L217.516 153.267C216.367 153.142 215.217 153.018 214.068 152.893C212.919 152.769 211.769 152.644 210.62 152.52L210.405 154.508ZM217.305 155.256C217.466 155.273 217.628 155.29 217.794 155.309C217.959 155.327 218.128 155.346 218.296 155.363L218.503 153.374C218.342 153.357 218.179 153.339 218.013 153.321C217.848 153.303 217.68 153.284 217.512 153.267L217.305 155.256ZM218.291 155.363C218.689 155.406 219.089 155.27 219.367 154.957C219.616 154.678 219.695 154.343 219.694 154.075C219.692 153.575 219.362 152.824 218.509 152.73L218.29 154.719C218.094 154.697 217.924 154.589 217.819 154.448C217.726 154.324 217.694 154.193 217.694 154.082C217.694 153.975 217.724 153.796 217.874 153.627C218.055 153.424 218.307 153.352 218.508 153.374L218.291 155.363ZM218.507 152.73C217.358 152.606 216.208 152.481 215.059 152.357C213.91 152.232 212.76 152.108 211.611 151.983L211.396 153.972C212.545 154.096 213.694 154.221 214.844 154.345C215.993 154.47 217.142 154.594 218.292 154.719L218.507 152.73ZM211.607 151.983C211.446 151.966 211.283 151.948 211.117 151.93C210.952 151.912 210.784 151.893 210.616 151.876L210.408 153.865C210.57 153.882 210.732 153.9 210.898 153.918C211.063 153.936 211.232 153.955 211.4 153.972L211.607 151.983ZM210.62 151.876C210.223 151.833 209.823 151.969 209.544 152.281C209.296 152.56 209.217 152.896 209.218 153.163C209.219 153.664 209.55 154.414 210.403 154.508L210.622 152.52C210.818 152.542 210.988 152.65 211.093 152.791C211.185 152.914 211.217 153.045 211.218 153.157C211.218 153.263 211.188 153.443 211.037 153.612C210.857 153.814 210.605 153.886 210.404 153.864L210.62 151.876Z" fill="#C7E0F4" mask="url(#path-7-inside-2_541_50964)"/>
<path d="M213.271 149.345C213.296 150.744 210.862 150.744 210.886 149.345C210.862 147.946 213.296 147.946 213.271 149.345Z" stroke="#C7E0F4" stroke-miterlimit="10"/>
<path d="M215.928 139.64C215.176 141.052 213.066 139.781 213.86 138.395C214.616 136.987 216.722 138.253 215.928 139.64Z" stroke="#C7E0F4" stroke-miterlimit="10"/>
<path d="M220.731 167.903C220.759 169.646 217.725 169.646 217.758 167.903C217.729 166.156 220.764 166.156 220.731 167.903Z" stroke="#C7E0F4" stroke-miterlimit="10"/>
<path d="M213.798 136.454C213.807 137.171 212.729 137.171 212.737 136.454C212.729 135.733 213.811 135.733 213.798 136.454Z" stroke="#C7E0F4" stroke-miterlimit="10"/>
<path d="M250.466 178.168C247.604 176.039 247.325 162.534 259.049 159.799C265.036 158.404 264.078 155.274 265.287 151.248C266.496 147.221 268.013 146.925 271.443 146.38C274.872 145.834 272.298 140.958 276.365 138.133C280.432 135.308 285.893 135.094 287.928 141.267C289.651 146.496 284.77 148.797 283.775 151.226C282.78 153.656 285.675 156.94 282.147 160.602C278.618 164.268 274.839 161.508 274.794 165.388C274.749 169.269 273.096 176.344 269.51 177.799C265.077 179.602 252.724 179.851 250.466 178.168Z" stroke="#B1D5F1" stroke-miterlimit="10"/>
<mask id="path-14-inside-3_541_50964" fill="white">
<path d="M254.451 179.705C256.034 177.734 257.675 175.815 259.262 173.849C263.202 168.96 267.051 163.984 270.809 158.94C273.536 155.278 276.217 151.578 278.84 147.83C279.075 147.495 278.54 147.173 278.306 147.504C273.893 153.806 269.321 159.983 264.621 166.053C261.693 169.835 258.711 173.579 255.668 177.262C255.121 177.923 254.554 178.575 254.015 179.245C253.76 179.567 254.192 180.022 254.451 179.705Z"/>
</mask>
<path d="M254.451 179.705C256.034 177.734 257.675 175.815 259.262 173.849C263.202 168.96 267.051 163.984 270.809 158.94C273.536 155.278 276.217 151.578 278.84 147.83C279.075 147.495 278.54 147.173 278.306 147.504C273.893 153.806 269.321 159.983 264.621 166.053C261.693 169.835 258.711 173.579 255.668 177.262C255.121 177.923 254.554 178.575 254.015 179.245C253.76 179.567 254.192 180.022 254.451 179.705Z" fill="#D4A5CF"/>
<path d="M254.451 179.705L255.226 180.337L255.231 180.331L254.451 179.705ZM259.262 173.849L260.04 174.477L260.041 174.476L259.262 173.849ZM270.809 158.94L271.611 159.537L271.611 159.537L270.809 158.94ZM278.84 147.83L279.66 148.404L279.66 148.404L278.84 147.83ZM278.306 147.504L277.49 146.925L277.487 146.93L278.306 147.504ZM264.621 166.053L263.83 165.441L263.83 165.441L264.621 166.053ZM255.668 177.262L256.439 177.899L256.439 177.899L255.668 177.262ZM254.015 179.245L253.236 178.618L253.231 178.624L254.015 179.245ZM255.231 180.331C256.017 179.353 256.818 178.386 257.625 177.414C258.43 176.443 259.242 175.467 260.04 174.477L258.484 173.221C257.696 174.198 256.893 175.163 256.086 176.137C255.28 177.108 254.469 178.086 253.672 179.078L255.231 180.331ZM260.041 174.476C263.989 169.577 267.845 164.591 271.611 159.537L270.007 158.342C266.256 163.377 262.415 168.342 258.484 173.222L260.041 174.476ZM271.611 159.537C274.343 155.868 277.03 152.16 279.66 148.404L278.021 147.257C275.404 150.995 272.728 154.688 270.007 158.343L271.611 159.537ZM279.66 148.404C279.878 148.092 279.961 147.699 279.849 147.314C279.747 146.96 279.509 146.709 279.267 146.562C278.792 146.274 277.978 146.238 277.49 146.925L279.122 148.082C279.02 148.226 278.851 148.332 278.659 148.359C278.489 148.382 278.341 148.339 278.23 148.273C278.122 148.207 277.989 148.079 277.928 147.869C277.858 147.628 277.92 147.401 278.021 147.257L279.66 148.404ZM277.487 146.93C273.084 153.218 268.521 159.382 263.83 165.441L265.411 166.665C270.12 160.584 274.703 154.394 279.125 148.077L277.487 146.93ZM263.83 165.441C260.908 169.216 257.933 172.951 254.897 176.625L256.439 177.899C259.49 174.206 262.478 170.455 265.411 166.665L263.83 165.441ZM254.898 176.624C254.377 177.254 253.776 177.948 253.236 178.618L254.794 179.872C255.332 179.203 255.866 178.592 256.439 177.899L254.898 176.624ZM253.231 178.624C252.732 179.255 252.939 180.006 253.315 180.403C253.508 180.606 253.811 180.795 254.197 180.811C254.62 180.829 254.986 180.631 255.226 180.337L253.676 179.073C253.786 178.937 254.001 178.801 254.279 178.813C254.519 178.823 254.682 178.938 254.766 179.026C254.925 179.194 255.044 179.557 254.799 179.866L253.231 178.624Z" fill="#B1D5F1" mask="url(#path-14-inside-3_541_50964)"/>
<path d="M258.436 159.958C254.381 142.323 264.908 152.119 272.298 138.056C276.698 127.315 265.924 123.409 270.99 118.914C276.056 114.42 277.471 98.9739 270.049 96.3166C260.426 92.8738 251.774 99.1714 250.598 107.469C249.689 113.87 253.801 118.339 243.106 123.031C232.41 127.723 234.063 133.549 236.259 144.688C238.455 155.828 231.226 151.746 225.608 161.152C221.155 168.604 227.414 176.207 230.202 179.04L251.852 179.426" stroke="#B1D5F1" stroke-miterlimit="10"/>
<mask id="path-17-inside-4_541_50964" fill="white">
<path d="M234.614 179.035C235.494 176.914 236.378 174.797 237.263 172.681C239.442 167.465 241.626 162.249 243.817 157.042C246.614 150.401 249.422 143.764 252.255 137.136C254.994 130.723 257.753 124.322 260.566 117.943C262.536 113.474 264.502 108.992 266.665 104.622C266.829 104.287 266.998 103.953 267.17 103.622C267.359 103.257 266.825 102.931 266.636 103.296C264.567 107.327 262.75 111.504 260.908 115.646C258.148 121.862 255.451 128.108 252.77 134.363C249.907 141.047 247.066 147.74 244.241 154.441C241.93 159.923 239.627 165.409 237.337 170.895C236.263 173.462 235.132 176.008 234.125 178.601C234.113 178.635 234.096 178.674 234.08 178.708C233.923 179.086 234.454 179.412 234.614 179.035Z"/>
</mask>
<path d="M234.614 179.035C235.494 176.914 236.378 174.797 237.263 172.681C239.442 167.465 241.626 162.249 243.817 157.042C246.614 150.401 249.422 143.764 252.255 137.136C254.994 130.723 257.753 124.322 260.566 117.943C262.536 113.474 264.502 108.992 266.665 104.622C266.829 104.287 266.998 103.953 267.17 103.622C267.359 103.257 266.825 102.931 266.636 103.296C264.567 107.327 262.75 111.504 260.908 115.646C258.148 121.862 255.451 128.108 252.77 134.363C249.907 141.047 247.066 147.74 244.241 154.441C241.93 159.923 239.627 165.409 237.337 170.895C236.263 173.462 235.132 176.008 234.125 178.601C234.113 178.635 234.096 178.674 234.08 178.708C233.923 179.086 234.454 179.412 234.614 179.035Z" fill="#D4A5CF"/>
<path d="M234.614 179.035L235.535 179.425L235.538 179.418L234.614 179.035ZM237.263 172.681L236.34 172.296L236.34 172.296L237.263 172.681ZM243.817 157.042L242.896 156.654L242.896 156.654L243.817 157.042ZM252.255 137.136L253.175 137.529L253.175 137.529L252.255 137.136ZM260.566 117.943L261.481 118.346L261.481 118.346L260.566 117.943ZM266.665 104.622L267.561 105.066L267.562 105.063L266.665 104.622ZM267.17 103.622L268.057 104.085L268.058 104.082L267.17 103.622ZM266.636 103.296L265.748 102.836L265.746 102.839L266.636 103.296ZM260.908 115.646L259.994 115.24L259.994 115.241L260.908 115.646ZM252.77 134.363L251.85 133.969L251.85 133.969L252.77 134.363ZM244.241 154.441L243.319 154.052L243.319 154.052L244.241 154.441ZM237.337 170.895L238.259 171.281L238.259 171.281L237.337 170.895ZM234.125 178.601L233.193 178.239L233.188 178.251L233.184 178.263L234.125 178.601ZM234.08 178.708L233.178 178.276L233.166 178.301L233.156 178.326L234.08 178.708ZM235.538 179.418C236.417 177.298 237.301 175.183 238.185 173.067L236.34 172.296C235.456 174.412 234.571 176.529 233.691 178.651L235.538 179.418ZM238.185 173.067C240.365 167.851 242.548 162.636 244.739 157.43L242.896 156.654C240.703 161.863 238.519 167.079 236.34 172.296L238.185 173.067ZM244.739 157.43C247.535 150.79 250.343 144.155 253.175 137.529L251.336 136.743C248.502 143.374 245.692 150.012 242.896 156.654L244.739 157.43ZM253.175 137.529C255.913 131.117 258.671 124.721 261.481 118.346L259.651 117.54C256.836 123.924 254.075 130.328 251.336 136.744L253.175 137.529ZM261.481 118.346C263.453 113.872 265.41 109.412 267.561 105.066L265.768 104.179C263.594 108.573 261.619 113.076 259.651 117.54L261.481 118.346ZM267.562 105.063C267.724 104.734 267.889 104.407 268.057 104.085L266.284 103.159C266.107 103.498 265.934 103.841 265.767 104.181L267.562 105.063ZM268.058 104.082C268.445 103.336 268.048 102.626 267.566 102.332C267.323 102.183 266.989 102.088 266.626 102.162C266.232 102.242 265.923 102.498 265.748 102.836L267.524 103.756C267.443 103.911 267.271 104.071 267.025 104.121C266.81 104.165 266.634 104.106 266.524 104.039C266.412 103.971 266.305 103.857 266.249 103.694C266.185 103.51 266.204 103.314 266.283 103.162L268.058 104.082ZM265.746 102.839C263.662 106.901 261.831 111.109 259.994 115.24L261.821 116.053C263.669 111.898 265.473 107.752 267.525 103.752L265.746 102.839ZM259.994 115.241C257.232 121.462 254.532 127.713 251.85 133.969L253.689 134.757C256.369 128.504 259.065 122.262 261.822 116.052L259.994 115.241ZM251.85 133.969C248.987 140.655 246.145 147.35 243.319 154.052L245.162 154.829C247.987 148.13 250.828 141.439 253.689 134.757L251.85 133.969ZM243.319 154.052C241.008 159.535 238.705 165.023 236.414 170.51L238.259 171.281C240.549 165.795 242.852 160.31 245.162 154.829L243.319 154.052ZM236.414 170.51C235.352 173.048 234.206 175.631 233.193 178.239L235.057 178.963C236.059 176.385 237.174 173.876 238.259 171.281L236.414 170.51ZM233.184 178.263C233.184 178.261 233.185 178.261 233.184 178.262C233.184 178.262 233.184 178.264 233.183 178.265C233.181 178.269 233.179 178.273 233.178 178.276L234.982 179.14C235.01 179.08 235.041 179.01 235.066 178.939L233.184 178.263ZM233.156 178.326C232.853 179.058 233.241 179.722 233.706 180.007C233.944 180.154 234.29 180.26 234.673 180.169C235.093 180.069 235.388 179.771 235.535 179.425L233.694 178.644C233.76 178.487 233.929 178.29 234.209 178.223C234.452 178.165 234.645 178.237 234.751 178.302C234.95 178.424 235.15 178.737 235.004 179.09L233.156 178.326Z" fill="#B1D5F1" mask="url(#path-17-inside-4_541_50964)"/>
<path d="M268.855 130.496L256.149 131.23L254.34 131.333C253.945 131.355 253.945 131.999 254.34 131.977M268.855 130.496L268.882 130.995M268.855 130.496L268.884 130.995L268.882 130.995M268.855 130.496C269.254 130.475 269.25 131.119 268.855 131.14L267.046 131.243M268.882 130.995C268.874 130.996 268.862 130.996 268.848 130.993C268.847 130.993 268.847 130.993 268.847 130.993C268.832 130.991 268.813 130.986 268.793 130.978C268.755 130.962 268.723 130.937 268.7 130.91C268.657 130.86 268.653 130.816 268.653 130.8C268.653 130.784 268.657 130.754 268.685 130.718C268.721 130.673 268.777 130.644 268.827 130.641L267.922 130.692L267.018 130.744L267.017 130.744L256.157 131.371L256.157 131.371L254.348 131.476L254.347 131.476L254.312 131.478M268.882 130.995L268.848 130.997L268.847 130.997L267.038 131.102L267.038 131.102L256.178 131.729L256.177 131.729L255.273 131.781L254.368 131.832M254.312 131.478L254.311 131.478L254.34 131.977M254.312 131.478L254.34 131.977M254.312 131.478C254.321 131.477 254.333 131.478 254.347 131.48C254.348 131.48 254.348 131.48 254.348 131.48C254.364 131.482 254.383 131.487 254.404 131.496C254.443 131.512 254.475 131.537 254.497 131.564C254.54 131.613 254.543 131.657 254.543 131.671C254.543 131.687 254.54 131.718 254.511 131.754C254.475 131.8 254.418 131.829 254.368 131.832M254.34 131.977L267.046 131.243M267.046 131.243L254.368 131.832M267.046 131.243L254.367 131.832C254.368 131.832 254.368 131.832 254.368 131.832" fill="#D4A5CF" stroke="#B1D5F1"/>
<mask id="path-20-inside-5_541_50964" fill="white">
<path d="M239.684 166.487C243.031 166.092 246.378 165.702 249.726 165.307C250.194 165.251 250.663 165.195 251.132 165.143C251.523 165.096 251.527 164.452 251.132 164.5C247.785 164.894 244.437 165.285 241.09 165.68C240.621 165.736 240.152 165.792 239.684 165.843C239.293 165.89 239.289 166.534 239.684 166.487Z"/>
</mask>
<path d="M239.684 166.487C243.031 166.092 246.378 165.702 249.726 165.307C250.194 165.251 250.663 165.195 251.132 165.143C251.523 165.096 251.527 164.452 251.132 164.5C247.785 164.894 244.437 165.285 241.09 165.68C240.621 165.736 240.152 165.792 239.684 165.843C239.293 165.89 239.289 166.534 239.684 166.487Z" fill="#D4A5CF"/>
<path d="M239.684 166.487L239.567 165.494L239.565 165.494L239.684 166.487ZM249.726 165.307L249.843 166.3L249.844 166.3L249.726 165.307ZM251.132 165.143L251.241 166.138L251.252 166.136L251.132 165.143ZM251.132 164.5L251.249 165.493L251.251 165.492L251.132 164.5ZM241.09 165.68L240.973 164.687L240.972 164.687L241.09 165.68ZM239.684 165.843L239.574 164.849L239.564 164.85L239.684 165.843ZM239.801 167.48C241.474 167.283 243.147 167.086 244.821 166.89C246.495 166.694 248.169 166.497 249.843 166.3L249.608 164.313C247.935 164.511 246.262 164.707 244.588 164.904C242.915 165.1 241.241 165.296 239.567 165.494L239.801 167.48ZM249.844 166.3C250.313 166.244 250.778 166.188 251.241 166.137L251.023 164.149C250.549 164.202 250.075 164.258 249.607 164.314L249.844 166.3ZM251.252 166.136C252.097 166.034 252.425 165.289 252.427 164.789C252.427 164.522 252.349 164.185 252.097 163.905C251.814 163.59 251.41 163.459 251.013 163.507L251.251 165.492C251.051 165.516 250.795 165.448 250.61 165.243C250.456 165.071 250.426 164.889 250.427 164.783C250.427 164.605 250.558 164.206 251.012 164.151L251.252 166.136ZM251.015 163.506C249.342 163.704 247.668 163.9 245.994 164.097C244.321 164.293 242.647 164.489 240.973 164.687L241.207 166.673C242.881 166.476 244.554 166.279 246.228 166.083C247.901 165.887 249.575 165.69 251.249 165.493L251.015 163.506ZM240.972 164.687C240.502 164.743 240.038 164.798 239.574 164.849L239.793 166.837C240.267 166.785 240.74 166.729 241.208 166.673L240.972 164.687ZM239.564 164.85C238.719 164.953 238.391 165.697 238.389 166.197C238.388 166.464 238.467 166.802 238.719 167.082C239.002 167.396 239.406 167.528 239.802 167.48L239.565 165.494C239.764 165.47 240.021 165.539 240.205 165.744C240.36 165.915 240.389 166.098 240.389 166.204C240.389 166.382 240.258 166.781 239.804 166.836L239.564 164.85Z" fill="#B1D5F1" mask="url(#path-20-inside-5_541_50964)"/>
<path d="M247.317 148.386L247.317 148.386L247.317 148.386Z" fill="#D4A5CF" stroke="#B1D5F1"/>
<path d="M259.271 105.635C257.63 108.215 254.624 106.078 256.322 103.541C257.959 100.961 260.965 103.094 259.271 105.635Z" stroke="#B1D5F1" stroke-miterlimit="10"/>
<path d="M259.788 111.522C259.809 112.874 257.773 112.874 257.794 111.522C257.773 110.169 259.809 110.169 259.788 111.522Z" stroke="#B1D5F1" stroke-miterlimit="10"/>
<path d="M267.026 138.39C267.063 141.017 263.111 141.017 263.148 138.39C263.111 135.763 267.063 135.763 267.026 138.39Z" stroke="#B1D5F1" stroke-miterlimit="10"/>
<path d="M23.5075 179.009C21.2047 179.64 10.7804 181.443 10.949 172.78C11.0353 168.355 9.79758 168.513 7.31383 166.779C4.83008 165.045 4.88765 163.937 5.1056 161.46C5.32354 158.983 2.95905 160.181 1.38409 156.927C-0.499284 153.029 1.77063 150.123 5.43046 149.423C9.0944 148.723 8.98748 152.849 10.4432 154.077C11.8989 155.304 13.9097 152.664 16.706 156.244C18.5318 158.584 15.6985 163.92 18.3838 163.422" stroke="#B1D5F1" stroke-miterlimit="10"/>
<path d="M18.701 171.299C15.1234 166.251 11.3443 161.361 7.39663 156.626C7.13756 156.313 6.70167 156.772 6.96074 157.081C10.8755 161.778 14.6217 166.62 18.1664 171.626C18.4008 171.952 18.9395 171.634 18.701 171.299Z" fill="#B1D5F1"/>
<path d="M12.6346 156.395C12.503 158.455 12.3714 160.52 12.2398 162.581C12.2193 162.873 12.2028 163.164 12.1822 163.456C12.2851 163.349 12.3879 163.242 12.4907 163.134C10.6772 163.293 8.86373 163.448 7.05438 163.607C6.65961 163.641 6.65961 164.285 7.05438 164.251C8.86784 164.092 10.6813 163.937 12.4907 163.778C12.6675 163.761 12.7867 163.641 12.7991 163.456C12.9307 161.396 13.0623 159.331 13.1938 157.27C13.2144 156.978 13.2309 156.687 13.2514 156.395C13.2761 155.978 12.6593 155.983 12.6346 156.395Z" fill="#B1D5F1"/>
<path d="M7.23184 127.758C-6.58915 109.758 19.6835 96.5658 25.5227 117.914C26.337 123.418 22.6483 127.26 32.242 131.295C41.8357 135.33 40.3553 140.34 38.3815 149.917C36.4118 159.499 42.8925 155.987 47.934 164.071C51.927 170.48 46.3138 177.014 43.8136 179.452L24.1904 179.353C16.0689 174.824 18.2524 164.646 19.2106 157.434C19.922 150.235 10.0075 153.455 6.05987 144.216C2.11219 134.978 11.7799 131.621 7.23184 127.758Z" stroke="#B1D5F1" stroke-miterlimit="10"/>
<path d="M40.3676 179.155C39.5781 177.331 38.7844 175.51 37.9908 173.686C36.0375 169.2 34.076 164.718 32.1104 160.237C29.602 154.527 27.0812 148.822 24.544 143.125C22.0932 137.626 19.6259 132.131 17.1092 126.662C15.3328 122.807 13.5645 118.935 11.6236 115.166C11.4755 114.878 11.3234 114.586 11.1712 114.299C10.978 113.938 10.4434 114.26 10.6367 114.625C12.4913 118.085 14.1238 121.682 15.7769 125.25C18.2524 130.594 20.6704 135.965 23.076 141.344C25.6461 147.088 28.1915 152.844 30.7246 158.605C32.793 163.306 34.8532 168.015 36.9052 172.724C37.5631 174.231 38.217 175.738 38.8708 177.245C39.1751 177.949 39.4383 178.709 39.8001 179.383C39.8166 179.413 39.8289 179.447 39.8413 179.477C39.9975 179.855 40.528 179.529 40.3676 179.155Z" fill="#B1D5F1"/>
<path d="M22.1633 138.39C18.3596 138.18 14.5599 137.969 10.7562 137.759C10.2175 137.729 9.68291 137.699 9.14422 137.669C8.74945 137.648 8.74945 138.291 9.14422 138.313C12.948 138.523 16.7476 138.734 20.5514 138.944C21.0901 138.974 21.6246 139.004 22.1633 139.034C22.5622 139.056 22.5581 138.412 22.1633 138.39Z" fill="#B1D5F1"/>
<path d="M35.31 168.071C31.0252 167.59 26.7444 167.105 22.4595 166.624C21.8632 166.556 21.2629 166.491 20.6666 166.422C20.2718 166.38 20.276 167.023 20.6666 167.066C24.9515 167.547 29.2322 168.032 33.5171 168.513C34.1134 168.582 34.7138 168.646 35.31 168.715C35.7048 168.758 35.7007 168.114 35.31 168.071Z" fill="#B1D5F1"/>
<path d="M36.0253 135.78C35.1617 137.72 34.2982 139.656 33.4346 141.596C32.0653 144.67 30.6959 147.748 29.3266 150.822C29.0099 151.534 28.6892 152.251 28.3725 152.964C28.2081 153.337 28.7385 153.664 28.9071 153.29C29.7707 151.35 30.6342 149.414 31.4978 147.473C32.8671 144.4 34.2365 141.322 35.6059 138.248C35.9225 137.535 36.2432 136.819 36.5599 136.106C36.7244 135.728 36.1939 135.402 36.0253 135.78Z" fill="#B1D5F1"/>
<path d="M17.7469 116.338C19.1697 118.523 21.9249 116.776 20.3951 114.535C18.9682 112.35 16.2131 114.097 17.7469 116.338Z" stroke="#B1D5F1" stroke-miterlimit="10"/>
<path d="M17.2784 121.399C17.262 122.563 19.0878 122.563 19.0672 121.399C19.0878 120.236 17.262 120.236 17.2784 121.399Z" stroke="#B1D5F1" stroke-miterlimit="10"/>
<path d="M10.7888 144.508C10.7559 146.766 14.3006 146.766 14.2677 144.508C14.3006 142.25 10.7559 142.25 10.7888 144.508Z" stroke="#B1D5F1" stroke-miterlimit="10"/>
<path d="M92.5469 137.957C106.541 124.765 86.136 109.916 78.4298 127.066C77.0276 131.586 79.6306 135.347 71.0197 137.377C62.4129 139.408 63.0051 143.838 63.4122 152.188C63.8193 160.537 58.8189 156.656 53.5183 162.748C49.3198 167.577 53.1893 173.879 54.9781 176.292L71.5214 179.001C78.9562 176.339 78.4463 167.457 78.5778 161.245C78.9191 155.081 86.8474 159.202 91.379 151.986C95.9147 144.77 88.2126 140.567 92.5469 137.957Z" stroke="#B1D5F1" stroke-miterlimit="10"/>
<path d="M58.3954 176.867C59.296 175.446 60.2007 174.025 61.1053 172.609C63.3218 169.132 65.5424 165.659 67.7712 162.186C70.6332 157.725 73.5076 153.269 76.3944 148.826C79.1783 144.546 81.9705 140.275 84.8038 136.029C86.8064 133.029 88.8049 130.011 90.9391 127.105C91.0954 126.89 91.2557 126.675 91.4161 126.465C91.6587 126.143 91.227 125.684 90.9802 126.01C88.9735 128.654 87.1312 131.44 85.2766 134.201C82.4927 138.352 79.7499 142.533 77.0194 146.723C74.0998 151.209 71.1966 155.704 68.3016 160.207C65.9371 163.886 63.5809 167.569 61.2287 171.252C60.4762 172.433 59.7195 173.618 58.967 174.798C58.6216 175.343 58.2063 175.884 57.9102 176.464C57.8978 176.489 57.8814 176.511 57.865 176.537C57.6429 176.889 58.1775 177.211 58.3954 176.867Z" fill="#B1D5F1"/>
<path d="M78.5411 145.379C81.7692 145.744 84.9931 146.105 88.2212 146.47C88.6817 146.521 89.1423 146.573 89.6028 146.624C89.9976 146.667 89.9935 146.023 89.6028 145.98C86.3748 145.615 83.1509 145.255 79.9228 144.89C79.4622 144.838 79.0017 144.787 78.5411 144.735C78.1464 144.693 78.1505 145.336 78.5411 145.379Z" fill="#D4A5CF"/>
<path d="M63.5886 168.504C67.2525 168.706 70.9164 168.912 74.5804 169.113C75.0985 169.143 75.6166 169.169 76.1348 169.199C76.5295 169.221 76.5295 168.577 76.1348 168.555C72.4708 168.354 68.8069 168.148 65.143 167.946C64.6248 167.916 64.1067 167.89 63.5886 167.86C63.1938 167.838 63.1938 168.482 63.5886 168.504Z" fill="#D4A5CF"/>
<path d="M66.7052 140.799C67.9306 145.336 69.1519 149.878 70.3773 154.416C70.5541 155.064 70.7269 155.716 70.9037 156.365C71.0106 156.764 71.6069 156.592 71.4999 156.193C70.2745 151.655 69.0532 147.113 67.8278 142.576C67.651 141.928 67.4782 141.275 67.3014 140.627C67.1945 140.228 66.5982 140.399 66.7052 140.799Z" fill="#B1D5F1"/>
<path d="M85.1857 126.843C83.7012 128.483 81.6122 126.619 83.1913 124.949C84.6758 123.31 86.7647 125.173 85.1857 126.843Z" stroke="#B1D5F1" stroke-miterlimit="10"/>
<path d="M87.3657 151.56C87.0984 153.466 84.113 152.964 84.4337 151.067C84.701 149.156 87.6906 149.663 87.3657 151.56Z" stroke="#B1D5F1" stroke-miterlimit="10"/>
<path d="M21.2988 66.1369L72.2486 123.305L89.0221 91.4003L102.757 125.194L131.661 96.3628L158.666 137.986L187.225 65.1667L223.001 78.8437L251.37 37.4778L264.525 49.1887L278.634 26.1619" stroke="#C7E0F4" stroke-miterlimit="10" stroke-linecap="round"/>
<path d="M73.6838 122.782C73.6838 123.726 72.9478 124.495 72.0431 124.495C71.1384 124.495 70.4023 123.726 70.4023 122.782C70.4023 121.837 71.1384 121.069 72.0431 121.069C72.9478 121.069 73.6838 121.837 73.6838 122.782Z" fill="#B1D5F1"/>
<path d="M22.4841 65.4931C22.4841 66.4376 21.7481 67.206 20.8434 67.206C19.9387 67.206 19.2026 66.4376 19.2026 65.4931C19.2026 64.5487 19.9387 63.7803 20.8434 63.7803C21.7481 63.7803 22.4841 64.5444 22.4841 65.4931Z" fill="#B1D5F1"/>
<path d="M104.64 125.053C104.64 125.997 103.904 126.766 103 126.766C102.095 126.766 101.359 125.997 101.359 125.053C101.359 124.108 102.095 123.34 103 123.34C103.904 123.34 104.64 124.108 104.64 125.053Z" fill="#B1D5F1"/>
<path d="M160.306 137.987C160.306 138.931 159.57 139.7 158.666 139.7C157.761 139.7 157.025 138.931 157.025 137.987C157.025 137.042 157.761 136.274 158.666 136.274C159.57 136.274 160.306 137.042 160.306 137.987Z" fill="#B1D5F1"/>
<path d="M188.866 65.4502C188.866 66.3946 188.13 67.163 187.225 67.163C186.321 67.163 185.584 66.3946 185.584 65.4502C185.584 64.5057 186.321 63.7373 187.225 63.7373C188.13 63.7373 188.866 64.5057 188.866 65.4502Z" fill="#D4A5CF"/>
<path d="M224.646 78.685C224.646 79.6294 223.91 80.3979 223.005 80.3979C222.1 80.3979 221.364 79.6294 221.364 78.685C221.364 77.7406 222.1 76.9722 223.005 76.9722C223.91 76.9722 224.646 77.7363 224.646 78.685Z" fill="#B1D5F1"/>
<path d="M252.913 37.2163C252.913 38.1607 252.177 38.9291 251.272 38.9291C250.367 38.9291 249.631 38.1607 249.631 37.2163C249.631 36.2718 250.367 35.5034 251.272 35.5034C252.177 35.5034 252.913 36.2718 252.913 37.2163Z" fill="#B1D5F1"/>
<path d="M266.1 49.1889C266.1 50.1333 265.364 50.9018 264.46 50.9018C263.555 50.9018 262.819 50.1333 262.819 49.1889C262.819 48.2445 263.555 47.4761 264.46 47.4761C265.364 47.4761 266.1 48.2402 266.1 49.1889Z" fill="#B1D5F1"/>
<path d="M276.011 27.1202L278.688 28.6871L280.583 23.145L276.011 27.1202Z" fill="#B1D5F1"/>
<path fill-rule="evenodd" clip-rule="evenodd" d="M36.4319 44.8019C36.9912 45.1067 37.497 45.4802 37.9493 45.918L39.5695 45.3171L41.0951 47.8284L39.882 49.1033C40.0671 49.7129 40.1781 50.3569 40.1987 51.0137L41.7531 51.7821L41.128 54.684L39.4091 54.6883C39.1172 55.2722 38.7594 55.8002 38.34 56.2724L38.9157 57.9638L36.5101 59.5564L35.2887 58.29C34.7048 58.4832 34.088 58.5948 33.4588 58.6206L32.7228 60.2433L29.9429 59.5908L29.9388 57.7964C29.3796 57.4916 28.8738 57.1181 28.4214 56.6802L26.8012 57.2812L25.2756 54.7699L26.4887 53.4949C26.3037 52.8853 26.1967 52.2414 26.1721 51.5846L24.6177 50.8162L25.2427 47.9142L26.9616 47.9099C27.2536 47.3261 27.6113 46.7981 28.0308 46.3259L27.4551 44.6345L29.8607 43.0418L31.082 44.3082C31.6659 44.115 32.2828 44.0034 32.9119 43.9777L33.648 42.355L36.4278 43.0075L36.4319 44.8019ZM33.9852 48.2147C32.3403 47.8284 30.7037 48.9102 30.3377 50.6273C29.9676 52.3444 31.0039 54.053 32.6487 54.4351C34.2936 54.8214 35.9302 53.7396 36.2962 52.0225C36.6622 50.3053 35.6301 48.6011 33.9852 48.2147Z" stroke="#B1D5F1" stroke-miterlimit="10"/>
<path d="M219.804 36.8786L219.805 37.1754L220.066 37.3168C220.46 37.5303 220.822 37.7989 221.144 38.1116L221.371 38.3316L221.667 38.2216L222.55 37.8932L223.333 39.1832L222.644 39.9062L222.443 40.1164L222.527 40.3947C222.659 40.8365 222.738 41.2973 222.757 41.7695L222.769 42.0654L223.034 42.1972L223.903 42.6295L223.58 44.1313L222.634 44.1343L222.325 44.1353L222.188 44.4118C221.982 44.8264 221.723 45.2059 221.423 45.5423L221.229 45.7602L221.323 46.0363L221.651 46.9975L220.433 47.8038L219.764 47.1081L219.546 46.8822L219.248 46.9794C218.829 47.116 218.393 47.1976 217.947 47.2171L217.641 47.2304L217.513 47.509L217.104 48.407L215.708 48.0798L215.705 47.0669L215.704 46.7701L215.443 46.6287C215.049 46.4152 214.687 46.1466 214.365 45.8339L214.138 45.614L213.842 45.724L212.959 46.0523L212.175 44.7623L212.865 44.0393L213.066 43.8291L212.982 43.5508C212.85 43.1091 212.771 42.6483 212.752 42.1761L212.74 41.8802L212.475 41.7483L211.606 41.316L211.929 39.8142L212.875 39.8112L213.184 39.8102L213.321 39.5337C213.527 39.1191 213.786 38.7396 214.085 38.4032L214.28 38.1854L214.185 37.9092L213.858 36.948L215.076 36.1418L215.745 36.8374L215.962 37.0634L216.261 36.9661C216.679 36.8295 217.116 36.7479 217.562 36.7285L217.868 36.7152L217.995 36.4365L218.405 35.5386L219.801 35.8657L219.804 36.8786ZM218.493 39.0689C216.913 38.7012 215.371 39.74 215.028 41.3446C214.688 42.9399 215.642 44.5572 217.218 44.9239C218.798 45.2915 220.339 44.253 220.682 42.6488C221.027 41.0514 220.067 39.4352 218.493 39.0689Z" fill="#C7E0F4" stroke="#B1D5F1"/>
<path fill-rule="evenodd" clip-rule="evenodd" d="M257.699 76.7759C258.295 77.1021 258.838 77.5014 259.323 77.9693L261.058 77.3254L262.687 80.0084L261.387 81.3692C261.585 82.0217 261.7 82.7086 261.729 83.4126L263.39 84.2368L262.724 87.3363L260.886 87.3406C260.573 87.963 260.191 88.5297 259.743 89.0362L260.359 90.8478L257.789 92.5478L256.486 91.1913C255.861 91.3973 255.203 91.5175 254.528 91.5476L253.739 93.2819L250.766 92.5864L250.762 90.6675C250.165 90.3456 249.622 89.942 249.137 89.4741L247.402 90.118L245.774 87.435L247.073 86.0742C246.876 85.4217 246.76 84.7348 246.732 84.0308L245.07 83.2066L245.736 80.1028L247.575 80.0985C247.883 79.4761 248.27 78.9094 248.718 78.4029L248.101 76.5913L250.671 74.8913L251.975 76.2478C252.6 76.0418 253.258 75.9216 253.932 75.8915L254.722 74.1572L257.691 74.8527L257.699 76.7759ZM255.079 80.4248C253.319 80.0127 251.572 81.1675 251.177 83.0048C250.782 84.8421 251.888 86.6666 253.648 87.0787C255.408 87.4908 257.156 86.336 257.551 84.4987C257.945 82.6614 256.839 80.8369 255.079 80.4248Z" stroke="#B1D5F1" stroke-miterlimit="10"/>
<path fill-rule="evenodd" clip-rule="evenodd" d="M230.169 22.6163C230.613 22.8567 231.016 23.1571 231.373 23.5006L232.66 23.0241L233.869 25.016L232.907 26.0248C233.055 26.5099 233.142 27.0207 233.158 27.5402L234.392 28.154L233.898 30.455L232.533 30.4593C232.303 30.9229 232.015 31.3436 231.686 31.7171L232.142 33.0608L230.234 34.3229L229.264 33.3183C228.799 33.4729 228.31 33.563 227.812 33.5802L227.228 34.868L225.02 34.3529L225.016 32.9277C224.572 32.6873 224.169 32.3868 223.811 32.0433L222.524 32.5199L221.315 30.528L222.281 29.5149C222.133 29.0298 222.047 28.5189 222.031 27.9995L220.797 27.3899L221.29 25.0889L222.656 25.0846C222.886 24.621 223.174 24.2003 223.503 23.8268L223.046 22.4832L224.954 21.2211L225.925 22.2299C226.389 22.0754 226.879 21.9852 227.376 21.968L227.96 20.6802L230.164 21.1953L230.169 22.6163ZM228.223 25.3293C226.916 25.0245 225.62 25.8831 225.324 27.2439C225.032 28.6091 225.855 29.9613 227.158 30.2704C228.466 30.5752 229.761 29.7166 230.057 28.3558C230.354 26.9864 229.531 25.6341 228.223 25.3293Z" stroke="#B1D5F1" stroke-miterlimit="10"/>
<path d="M212.227 108.915H82.2705C79.5729 108.915 77.3853 106.632 77.3853 103.816V21.938C77.3853 19.1219 79.5729 16.8381 82.2705 16.8381H212.227C214.925 16.8381 217.113 19.1219 217.113 21.938V103.816C217.113 106.632 214.925 108.915 212.227 108.915Z" fill="white" stroke="#010001" stroke-miterlimit="10"/>
<path d="M212.227 16.8381H82.2705C79.5729 16.8381 77.3853 19.1219 77.3853 21.938V24.4837H217.108V21.938C217.113 19.1219 214.925 16.8381 212.227 16.8381Z" fill="#BFBCC0" stroke="#010001" stroke-miterlimit="10"/>
<path d="M82.6405 22.5774C83.5921 22.5774 84.3635 21.7721 84.3635 20.7787C84.3635 19.7853 83.5921 18.98 82.6405 18.98C81.6889 18.98 80.9175 19.7853 80.9175 20.7787C80.9175 21.7721 81.6889 22.5774 82.6405 22.5774Z" stroke="#010001" stroke-miterlimit="10"/>
<path d="M90.8723 20.7787C90.8723 21.7746 90.0992 22.5774 89.1493 22.5774C88.1994 22.5774 87.4263 21.7703 87.4263 20.7787C87.4263 19.7827 88.1994 18.98 89.1493 18.98C90.0992 18.98 90.8723 19.787 90.8723 20.7787Z" stroke="#010001" stroke-miterlimit="10"/>
<path d="M97.3786 20.7787C97.3786 21.7746 96.6055 22.5774 95.6556 22.5774C94.7016 22.5774 93.9326 21.7703 93.9326 20.7787C93.9326 19.7827 94.7057 18.98 95.6556 18.98C96.6055 18.98 97.3786 19.787 97.3786 20.7787Z" stroke="#010001" stroke-miterlimit="10"/>
<path d="M142.872 90.2328H94.0314C93.5339 90.2328 93.1309 89.8121 93.1309 89.2927C93.1309 88.7732 93.5339 88.3525 94.0314 88.3525H142.872C143.369 88.3525 143.772 88.7732 143.772 89.2927C143.772 89.8121 143.369 90.2328 142.872 90.2328Z" fill="#BFBCC0"/>
<path d="M130.765 94.9164H94.0314C93.5339 94.9164 93.1309 94.4957 93.1309 93.9763C93.1309 93.4568 93.5339 93.0361 94.0314 93.0361H130.765C131.263 93.0361 131.666 93.4568 131.666 93.9763C131.662 94.4957 131.263 94.9164 130.765 94.9164Z" fill="#BFBCC0"/>
<path d="M115.25 99.601H94.0314C93.5339 99.601 93.1309 99.1803 93.1309 98.6608C93.1309 98.1414 93.5339 97.7207 94.0314 97.7207H115.25C115.748 97.7207 116.151 98.1414 116.151 98.6608C116.151 99.1803 115.748 99.601 115.25 99.601Z" fill="#BFBCC0"/>
<path d="M148.739 89.019H193.126" stroke="#010001" stroke-width="2" stroke-miterlimit="10" stroke-linecap="round"/>
<path d="M148.739 92.3848H176.764" stroke="#010001" stroke-width="2" stroke-miterlimit="10" stroke-linecap="round"/>
<path d="M148.739 95.7539H169.683" stroke="#010001" stroke-width="2" stroke-miterlimit="10" stroke-linecap="round"/>
<path d="M148.739 99.1191H182.422" stroke="#010001" stroke-width="2" stroke-miterlimit="10" stroke-linecap="round"/>
<path d="M114.978 85.0645L122.947 73.0273C124.568 70.5804 127.796 69.9923 130.115 71.7223L131.233 72.5594C134.013 74.6372 137.928 73.3278 139.034 69.9494L142.904 58.1311C144.479 53.3232 150.992 53.3232 152.563 58.1311L154.434 63.8492C155.935 68.4383 162.05 68.7173 163.933 64.2828L165.558 60.4579C167.178 56.6415 172.182 56.1607 174.44 59.6079C176.813 63.2311 182.126 62.4755 183.487 58.3243L185.296 52.7951C186.957 47.7167 193.96 48.0988 195.104 53.336L202.028 85.0645C202.033 85.0645 115.221 84.8112 114.978 85.0645Z" fill="#F19101"/>
<path d="M196.617 73.6669C195.1 70.5288 190.918 69.945 188.829 72.7053C188.759 72.7997 188.689 72.8985 188.623 72.9972C188.623 72.9972 186.349 77.3373 185.132 78.3289C182.139 80.7672 178.429 81.3039 174.408 75.6974L171.895 72.4348C170.226 70.2669 167.215 69.8548 165.065 71.4947L162.158 73.7141C160.792 74.7573 158.925 76.7792 157.486 75.9635C155.895 75.0578 151.634 71.4947 151.634 71.4947C149.484 69.8505 146.474 70.2669 144.804 72.4348L142.292 75.6974C139.865 78.8483 135.071 78.0327 133.73 74.2378L130.63 65.4761C129.005 60.8828 122.751 60.96 121.233 65.5963L114.999 84.6351L114.518 85.1889C114.518 85.1889 114.625 85.1889 114.818 85.1889L114.757 85.3778C114.757 85.0043 202.185 85.1889 202.185 85.1889L196.617 73.6669Z" fill="#005A9E"/>
<path d="M97.937 85.3647H208.595" stroke="#010001" stroke-miterlimit="10" stroke-linecap="round"/>
<path d="M125.387 39.1919V40.0071" stroke="#010001" stroke-width="0.4763" stroke-miterlimit="10"/>
<path d="M125.387 41.6646V83.8461" stroke="#010001" stroke-width="0.4763" stroke-miterlimit="10" stroke-dasharray="3.85 3.85"/>
<path d="M125.387 84.6699V85.4894" stroke="#010001" stroke-width="0.4763" stroke-miterlimit="10"/>
<path d="M147.214 41.9727V86.5239" stroke="#010001" stroke-width="0.4763" stroke-miterlimit="10" stroke-dasharray="3.81 3.81"/>
<path d="M190.52 35.4263V85.9102" stroke="#010001" stroke-width="0.4763" stroke-miterlimit="10" stroke-dasharray="3.81 3.81"/>
<path d="M169.119 51.2974V85.4899" stroke="#010001" stroke-width="0.4763" stroke-miterlimit="10" stroke-dasharray="3.81 3.81"/>
<path d="M184.256 49.9702H168.753C168.444 49.9702 168.189 49.7083 168.189 49.3821C168.189 49.0601 168.44 48.7939 168.753 48.7939H184.256C184.564 48.7939 184.819 49.0558 184.819 49.3821C184.819 49.7083 184.568 49.9702 184.256 49.9702Z" fill="#BFBCC0"/>
<path d="M205.558 34.2505H190.055C189.747 34.2505 189.492 33.9886 189.492 33.6623C189.492 33.3404 189.743 33.0742 190.055 33.0742H205.558C205.866 33.0742 206.121 33.3361 206.121 33.6623C206.121 33.9886 205.866 34.2505 205.558 34.2505Z" fill="#BFBCC0"/>
<path d="M200.743 31.9149H189.858C189.656 31.9149 189.492 31.7432 189.492 31.5328V31.125C189.492 30.9146 189.656 30.7429 189.858 30.7429H200.743C200.944 30.7429 201.109 30.9146 201.109 31.125V31.5328C201.109 31.7432 200.944 31.9149 200.743 31.9149Z" fill="#BFBCC0"/>
<path d="M162.433 40.7456H146.93C146.622 40.7456 146.367 40.4837 146.367 40.1575C146.367 39.8355 146.618 39.5693 146.93 39.5693H162.433C162.741 39.5693 162.996 39.8312 162.996 40.1575C162.996 40.4837 162.745 40.7456 162.433 40.7456Z" fill="#BFBCC0"/>
<path d="M140.778 38.062H125.275C124.967 38.062 124.712 37.8001 124.712 37.4739C124.712 37.1519 124.963 36.8857 125.275 36.8857H140.778C141.087 36.8857 141.342 37.1476 141.342 37.4739C141.337 37.8001 141.087 38.062 140.778 38.062Z" fill="#BFBCC0"/>
<path d="M133.454 35.4265H125.032C124.851 35.4265 124.708 35.2762 124.708 35.0873V34.5894C124.708 34.4005 124.851 34.2502 125.032 34.2502H133.454C133.635 34.2502 133.779 34.4005 133.779 34.5894V35.0873C133.779 35.2719 133.635 35.4265 133.454 35.4265Z" fill="#BFBCC0"/>
<path d="M179.617 47.6226H168.56C168.354 47.6226 168.189 47.4509 168.189 47.2363V46.837C168.189 46.6224 168.354 46.4507 168.56 46.4507H179.617C179.823 46.4507 179.987 46.6224 179.987 46.837V47.2363C179.987 47.4509 179.823 47.6226 179.617 47.6226Z" fill="#BFBCC0"/>
<path d="M105.401 48.0302L120.456 45.6305C121.718 54.2548 115.961 62.4327 107.7 63.7506C99.4383 65.0685 91.6046 59.0585 90.3422 50.4342C89.0797 41.8099 94.8368 33.632 103.098 32.3141C104.414 32.1037 105.75 32.0737 107.07 32.2282L105.401 48.0302Z" fill="#F19101"/>
<path d="M110.286 32.2798L108.457 44.4629L119.913 42.2177C119.913 42.2177 118.231 35.3878 110.286 32.2798Z" fill="#6348ED"/>
<path d="M232.455 76.9717C232.455 76.9717 224.712 84.7417 221.369 89.597C218.285 94.0787 214.531 90.3611 214.531 90.3611L208.625 99.0026C208.625 99.0026 213.087 103.965 220.024 106.12C226.962 108.271 228.113 105.914 228.113 105.914L232.455 76.9717Z" fill="#F19101" stroke="#010001" stroke-miterlimit="10" stroke-linecap="round"/>
<path d="M217.112 98.4186C217.359 98.9638 217.606 99.509 217.852 100.058C217.898 100.161 218.025 100.252 218.128 100.282C218.239 100.312 218.387 100.299 218.486 100.234C218.712 100.084 218.761 99.818 218.65 99.5733C218.403 99.0282 218.157 98.483 217.91 97.9335C217.865 97.8305 217.737 97.7403 217.634 97.7102C217.523 97.6802 217.375 97.6931 217.277 97.7575C217.05 97.912 217.001 98.1739 217.112 98.4186Z" fill="white"/>
<path d="M222.618 100.527C222.91 99.9818 223.227 99.4495 223.568 98.9344C223.704 98.724 223.613 98.3892 223.404 98.2733C223.169 98.1445 222.918 98.2218 222.77 98.445C222.433 98.9601 222.117 99.4925 221.82 100.038C221.701 100.257 221.763 100.574 221.985 100.699C222.207 100.819 222.495 100.763 222.618 100.527Z" fill="white"/>
<path d="M222.606 92.7529C222.561 93.3711 222.54 93.9935 222.54 94.616C222.54 94.8693 222.754 95.1097 223.001 95.0968C223.251 95.0839 223.465 94.8864 223.461 94.616C223.457 93.9935 223.482 93.3711 223.527 92.7529C223.543 92.4996 223.301 92.2592 223.066 92.2678C222.799 92.285 222.622 92.4824 222.606 92.7529Z" fill="white"/>
<path d="M225.707 85.1196C225.834 86.2014 226.007 87.2789 226.233 88.3435C226.287 88.5925 226.574 88.7599 226.801 88.6826C227.047 88.5968 227.179 88.3521 227.125 88.0902C226.916 87.1115 226.747 86.0941 226.632 85.1239C226.603 84.8749 226.439 84.6302 226.171 84.6431C225.945 84.6431 225.678 84.8491 225.707 85.1196Z" fill="white"/>
<path d="M207.626 88.6786C207.626 88.6786 205.566 87.511 205.179 88.2794C204.793 89.0478 206.281 89.7089 206.915 89.9536C207.548 90.1983 209.263 89.7089 207.626 88.6786Z" fill="white" stroke="#010001" stroke-width="0.75" stroke-miterlimit="10"/>
<path d="M208.074 97.106L204.837 83.8453C204.484 82.3901 205.508 80.9648 206.947 80.9133L215.985 80.5914C217.018 80.5527 217.939 81.2525 218.227 82.287L222.006 95.8439C222.425 97.3464 221.348 98.8531 219.847 98.8531L210.27 98.8789C209.233 98.8789 208.329 98.1491 208.074 97.106Z" fill="#010001"/>
<path d="M209.254 94.9502C209.254 94.9502 209.16 95.285 208.806 95.3065C208.453 95.328 207.499 95.0532 207.141 94.6798C206.787 94.3106 206.869 93.9543 207.005 93.9414C207.005 93.9414 206.565 93.7911 206.499 93.349C206.433 92.9068 206.771 92.7222 207.091 92.6879C207.091 92.6879 206.668 92.8725 206.257 92.499C205.845 92.1255 206.047 91.5674 206.73 91.4773C206.73 91.4773 205.833 91.6791 205.743 90.9965C205.652 90.3139 206.183 90.0907 206.573 90.022C206.96 89.949 207.897 89.8932 208.156 90.0649C208.416 90.2367 208.453 90.4728 208.325 90.6788C208.198 90.8849 207.819 91.2111 207.819 91.2111C207.819 91.2111 208.588 91.3142 208.777 91.473C208.967 91.6318 209.094 91.7177 209.004 91.9753C208.913 92.2285 208.296 92.5205 208.296 92.5205C208.296 92.5205 208.185 92.7222 208.457 92.7566C208.728 92.7909 209.378 93.0957 209.423 93.3704C209.468 93.6495 209.337 93.8856 209.217 93.9629C209.098 94.0401 208.95 94.0487 209.098 94.2505C209.246 94.4522 209.407 94.7184 209.254 94.9502Z" fill="white"/>
<path d="M207.086 93.8905C207.086 93.8905 206.605 94.1867 207.139 94.6804C207.67 95.174 208.632 95.3372 209.015 95.247C209.397 95.1569 209.364 94.3498 208.978 94.0751C208.587 93.8003 207.275 93.7102 207.086 93.8905Z" stroke="#010001" stroke-width="0.75" stroke-miterlimit="10" stroke-linecap="round"/>
<path d="M206.951 93.9211C206.951 93.9211 206.502 93.7837 206.49 93.2986C206.478 92.8135 206.942 92.5388 207.905 92.6332C208.871 92.7277 209.331 93.011 209.369 93.4617C209.406 93.9125 209.109 94.1529 208.97 94.0756" stroke="#010001" stroke-width="0.75" stroke-miterlimit="10" stroke-linecap="round"/>
<path d="M206.696 92.7751C206.696 92.7751 206.025 92.6635 206.042 92.0496C206.058 91.4357 207.164 91.2683 207.761 91.2125C208.357 91.1567 209.109 91.6332 208.933 92.0882C208.756 92.539 208.217 92.5647 208.024 92.6334" stroke="#010001" stroke-width="0.75" stroke-miterlimit="10" stroke-linecap="round"/>
<path d="M206.399 91.547C206.399 91.547 205.746 91.4697 205.725 90.8086C205.7 90.1518 206.897 89.8556 207.818 89.9028C208.735 89.95 208.159 91.1048 207.814 91.2078" stroke="#010001" stroke-width="0.75" stroke-miterlimit="10" stroke-linecap="round"/>
<path d="M238.462 117.14L242.262 117.364C242.262 117.364 243.331 113.629 242.139 109.121C240.95 104.614 226.985 104.863 226.985 104.863C226.985 104.863 226.685 113.513 226.792 113.582C226.899 113.65 238.462 117.14 238.462 117.14Z" fill="#106EBE"/>
<path d="M244.82 107.25L244.931 110.637L225.67 106.567L224.416 106.215C224.416 106.215 225.143 90.9371 227.409 84.6438C229.675 78.3505 232.817 75.5987 235.21 75.2253C237.603 74.8518 243.274 81.0292 243.274 81.0292L245.112 101.042L244.82 107.25Z" fill="#F19101" stroke="#010001" stroke-miterlimit="10" stroke-linecap="round"/>
<path d="M229.576 84.253C229.988 83.5919 230.399 82.9265 230.81 82.2654C230.942 82.0551 230.859 81.7245 230.646 81.6043C230.415 81.4755 230.152 81.5528 230.012 81.776C229.601 82.4371 229.19 83.1025 228.779 83.7636C228.647 83.974 228.729 84.3045 228.943 84.4247C229.173 84.5535 229.433 84.4805 229.576 84.253Z" fill="white"/>
<path d="M231.237 86.5532C231.163 87.21 231.089 87.8625 231.015 88.5193C231.003 88.6352 231.077 88.7812 231.151 88.8627C231.233 88.9486 231.365 89.0087 231.48 89.0044C231.599 89.0001 231.722 88.9572 231.809 88.8627C231.895 88.764 231.928 88.6567 231.944 88.5193C232.018 87.8625 232.092 87.21 232.166 86.5532C232.179 86.4373 232.105 86.2913 232.031 86.2098C231.948 86.1239 231.817 86.0638 231.702 86.0681C231.582 86.0724 231.459 86.1153 231.373 86.2098C231.282 86.3128 231.249 86.4201 231.237 86.5532Z" fill="white"/>
<path d="M234.791 81.8882C234.852 82.4764 234.918 83.0645 234.98 83.6483C234.992 83.7814 235.021 83.893 235.116 83.9917C235.198 84.0776 235.329 84.1377 235.445 84.1334C235.671 84.1248 235.938 83.9188 235.905 83.6526C235.843 83.0645 235.778 82.4764 235.716 81.8925C235.704 81.7595 235.675 81.6478 235.58 81.5491C235.498 81.4633 235.366 81.4031 235.251 81.4074C235.029 81.416 234.762 81.6178 234.791 81.8882Z" fill="white"/>
<path d="M238.088 90.0619C238.405 89.345 238.742 88.6367 239.1 87.9412C239.215 87.718 239.162 87.4046 238.936 87.2801C238.722 87.1599 238.426 87.2158 238.302 87.4519C237.94 88.1473 237.603 88.8556 237.291 89.5725C237.192 89.8 237.221 90.1048 237.455 90.2336C237.657 90.3495 237.982 90.3066 238.088 90.0619Z" fill="white"/>
<path d="M226.401 99.7548C226.784 99.3427 227.187 98.9477 227.602 98.5699C227.689 98.4927 227.738 98.3424 227.738 98.2265C227.738 98.1063 227.689 97.9646 227.602 97.8831C227.516 97.7972 227.397 97.7371 227.273 97.7414C227.146 97.7457 227.043 97.7972 226.944 97.8831C226.525 98.2566 226.126 98.6558 225.744 99.0679C225.575 99.2482 225.558 99.5745 225.744 99.7505C225.929 99.9308 226.221 99.9522 226.401 99.7548Z" fill="white"/>
<path d="M227.697 102.335C227.894 102.919 228.092 103.502 228.289 104.086C228.371 104.322 228.61 104.507 228.857 104.425C229.083 104.348 229.268 104.086 229.181 103.833C228.984 103.249 228.787 102.665 228.589 102.081C228.507 101.845 228.269 101.661 228.022 101.742C227.796 101.82 227.611 102.081 227.697 102.335Z" fill="white"/>
<path d="M234.063 106.897C234.626 106.197 235.223 105.532 235.852 104.897C236.025 104.721 236.033 104.386 235.852 104.214C235.663 104.034 235.383 104.025 235.198 104.214C234.569 104.849 233.973 105.515 233.409 106.215C233.253 106.408 233.216 106.713 233.409 106.897C233.578 107.06 233.894 107.103 234.063 106.897Z" fill="white"/>
<path d="M238.34 106.559C238.36 107.099 238.397 107.64 238.451 108.177C238.463 108.31 238.492 108.422 238.586 108.52C238.669 108.606 238.8 108.666 238.915 108.662C239.146 108.653 239.405 108.447 239.376 108.181C239.322 107.645 239.285 107.104 239.265 106.563C239.257 106.31 239.059 106.069 238.804 106.082C238.562 106.086 238.331 106.288 238.34 106.559Z" fill="white"/>
<path d="M225.239 93.5298L229.084 97.183L230.326 98.2262L233.521 93.8431C233.521 93.8431 231.149 93.0318 229.993 91.5808C228.834 90.1298 228.213 88.0392 227.986 87.7902C227.76 87.5412 226.708 87.0905 225.828 86.8158C224.943 86.541 222.822 85.6953 222.098 85.867C221.374 86.0345 221.699 86.7127 221.909 86.9145C222.114 87.112 223.697 87.7258 223.697 87.7258C223.697 87.7258 224.257 88.0221 223.948 88.0907C223.636 88.1594 223.385 88.3183 223.385 88.3183C223.385 88.3183 223.192 88.7991 223.039 88.9107C222.891 89.0223 222.752 89.2026 222.76 89.4344C222.768 89.6662 222.743 89.8379 222.521 90.0483C222.299 90.2586 222.25 90.9841 222.25 90.9841C222.25 90.9841 222.061 91.2632 222.139 91.7998C222.217 92.3364 222.764 93.2593 223.356 93.4654C223.952 93.6714 224.392 93.5813 224.392 93.5813L224.787 93.0533L225.239 93.5298Z" fill="white"/>
<path d="M224.569 87.9826C224.569 87.9826 221.69 87.2528 221.665 86.3685C221.628 85.2309 224.655 86.5145 226.489 86.9996C228.327 87.4804 228.126 88.2359 229.326 90.5884C230.531 92.9409 233.525 93.8381 233.525 93.8381L230.33 98.2211C230.33 98.2211 226.316 94.9199 225.535 93.8896C224.749 92.8593 223.672 91.9664 223.187 92.0952" stroke="#010001" stroke-width="0.75" stroke-miterlimit="10" stroke-linecap="round"/>
<path d="M224.626 92.9629C224.626 92.9629 224.63 93.8387 223.948 93.5854C223.249 93.3235 222.093 92.8084 222.06 91.5978C222.023 90.1897 223.824 90.9753 223.824 90.9753" stroke="#010001" stroke-width="0.75" stroke-miterlimit="10" stroke-linecap="round"/>
<path d="M224.52 89.67C224.52 89.67 222.159 89.4425 222.307 90.9064" stroke="#010001" stroke-width="0.75" stroke-miterlimit="10" stroke-linecap="round"/>
<path d="M225.088 88.9307C225.088 88.9307 223.43 88.5315 223.077 88.8577C222.723 89.184 222.814 89.8022 222.814 89.8022" stroke="#010001" stroke-width="0.75" stroke-miterlimit="10" stroke-linecap="round"/>
<path d="M223.281 88.7429C223.281 88.7429 223.417 87.4851 225.999 88.2321" stroke="#010001" stroke-width="0.75" stroke-miterlimit="10" stroke-linecap="round"/>
<path d="M243.743 95.3194C243.373 93.1772 241.161 87.7854 241.161 87.7854L236.892 75.5723C236.892 75.5723 245.215 76.9503 251.811 89.1892C258.403 101.428 252.7 108.795 247.485 109.305C237.916 110.241 228.841 98.8567 228.841 98.8567L233.64 91.5674L245.725 96.062" fill="#F19101"/>
<path d="M228.841 98.8527C228.841 98.8527 229.869 100.141 231.592 101.811L236.794 92.7354L233.64 91.5635L228.841 98.8527Z" fill="#F19101" stroke="#010001" stroke-miterlimit="10"/>
<path d="M229.503 97.8486L232.521 100.188" stroke="#010001" stroke-miterlimit="10"/>
<path d="M230.343 96.5435L233.513 98.4581" stroke="#010001" stroke-miterlimit="10"/>
<path d="M231.267 95.165L234.433 96.8564" stroke="#010001" stroke-miterlimit="10"/>
<path d="M232.152 93.8218L235.302 95.3372" stroke="#010001" stroke-miterlimit="10"/>
<path d="M232.97 92.5771L236.132 93.8908" stroke="#010001" stroke-miterlimit="10"/>
<path d="M236.889 75.5684C236.889 75.5684 245.212 76.9464 251.807 89.1853C258.399 101.424 252.696 108.791 247.481 109.302C237.912 110.237 228.837 98.8528 228.837 98.8528L233.636 91.5635L245.721 96.0581" stroke="#010001" stroke-miterlimit="10" stroke-linecap="round"/>
<path d="M241.156 87.7808C241.156 87.7808 243.369 93.1726 243.739 95.3147" stroke="#010001" stroke-miterlimit="10" stroke-linecap="round"/>
<path d="M234.405 100.625C234.906 101.385 235.42 102.137 235.947 102.879C236.021 102.982 236.099 103.064 236.222 103.102C236.333 103.132 236.481 103.12 236.58 103.055C236.773 102.926 236.901 102.613 236.744 102.394C236.218 101.651 235.704 100.9 235.202 100.14C235.067 99.9343 234.791 99.8184 234.569 99.9687C234.372 100.097 234.257 100.402 234.405 100.625Z" fill="white"/>
<path d="M237.151 97.259C237.579 97.2804 238.011 97.3062 238.439 97.3277C238.681 97.3405 238.911 97.0958 238.899 96.8468C238.887 96.5721 238.698 96.3789 238.439 96.366C238.011 96.3446 237.579 96.3188 237.151 96.2974C236.909 96.2845 236.679 96.5292 236.691 96.7782C236.703 97.0486 236.892 97.2461 237.151 97.259Z" fill="white"/>
<path d="M239.241 100.887C239.784 101.171 240.339 101.424 240.906 101.652C241.013 101.695 241.169 101.66 241.264 101.604C241.359 101.544 241.453 101.433 241.478 101.317C241.507 101.192 241.498 101.055 241.433 100.943C241.363 100.832 241.276 100.767 241.157 100.72C240.98 100.651 240.808 100.574 240.631 100.501C240.668 100.518 240.705 100.535 240.742 100.548C240.392 100.394 240.051 100.231 239.714 100.055C239.496 99.9431 239.204 99.986 239.08 100.226C238.965 100.445 239.011 100.767 239.241 100.887Z" fill="white"/>
<path d="M240.634 105.764C241.193 106.193 241.753 106.618 242.312 107.048C242.402 107.116 242.563 107.125 242.67 107.095C242.777 107.065 242.892 106.979 242.945 106.872C243.073 106.618 242.986 106.369 242.781 106.211C242.221 105.781 241.662 105.356 241.103 104.927C241.013 104.858 240.852 104.85 240.745 104.88C240.638 104.91 240.523 104.996 240.47 105.103C240.338 105.356 240.424 105.605 240.634 105.764Z" fill="white"/>
<path d="M244.525 98.7196C245.117 98.6809 245.713 98.6423 246.305 98.6079C246.548 98.5908 246.778 98.3976 246.766 98.1271C246.753 97.8782 246.56 97.6292 246.305 97.6463C245.713 97.685 245.117 97.7236 244.525 97.758C244.282 97.7751 244.052 97.9683 244.064 98.2388C244.072 98.4835 244.265 98.7367 244.525 98.7196Z" fill="white"/>
<path d="M245.573 103.184C246.153 103.381 246.733 103.575 247.309 103.772C247.539 103.849 247.823 103.682 247.876 103.433C247.934 103.167 247.798 102.922 247.551 102.841C246.972 102.643 246.392 102.45 245.816 102.252C245.586 102.175 245.302 102.343 245.249 102.592C245.195 102.853 245.327 103.098 245.573 103.184Z" fill="white"/>
<path d="M248.202 107.554C248.666 107.339 249.127 107.125 249.591 106.91C249.69 106.863 249.777 106.726 249.805 106.623C249.834 106.507 249.822 106.352 249.76 106.249C249.698 106.146 249.6 106.056 249.485 106.026C249.357 105.996 249.246 106.017 249.127 106.073C248.662 106.288 248.202 106.502 247.737 106.717C247.638 106.764 247.552 106.902 247.523 107.005C247.494 107.12 247.507 107.275 247.568 107.378C247.63 107.481 247.729 107.571 247.844 107.601C247.975 107.631 248.082 107.61 248.202 107.554Z" fill="white"/>
<path d="M252.284 102.94C252.58 102.523 252.839 102.081 253.057 101.613C253.111 101.497 253.14 101.373 253.103 101.24C253.074 101.128 252.992 101.008 252.889 100.952C252.679 100.836 252.371 100.883 252.255 101.124C252.038 101.587 251.778 102.034 251.482 102.45C251.417 102.545 251.408 102.716 251.437 102.824C251.466 102.935 251.548 103.056 251.651 103.111C251.758 103.171 251.889 103.202 252.009 103.159C252.128 103.12 252.21 103.047 252.284 102.94Z" fill="white"/>
<path d="M249.233 100.038C249.632 99.716 250.031 99.3941 250.429 99.0764C250.528 98.9948 250.606 98.9219 250.643 98.7888C250.672 98.6729 250.66 98.5183 250.598 98.4153C250.536 98.3123 250.438 98.2221 250.323 98.1921C250.212 98.1663 250.063 98.162 249.965 98.2393C249.566 98.5613 249.167 98.8832 248.768 99.2009C248.669 99.2825 248.591 99.3554 248.554 99.4885C248.526 99.6044 248.538 99.759 248.6 99.862C248.661 99.965 248.76 100.055 248.875 100.085C248.99 100.115 249.138 100.115 249.233 100.038Z" fill="white"/>
<path d="M247.433 93.6028C247.502 93.9248 247.564 94.2467 247.618 94.573C247.63 94.6546 247.642 94.7404 247.655 94.822C247.659 94.8606 247.667 94.8993 247.671 94.9379C247.688 95.0409 247.659 94.8477 247.675 94.9636C247.696 95.1311 247.712 95.2985 247.729 95.4659C247.741 95.599 247.774 95.7106 247.864 95.8093C247.947 95.8952 248.078 95.9553 248.193 95.951C248.424 95.9381 248.683 95.7364 248.654 95.4702C248.588 94.7576 248.477 94.0493 248.325 93.3495C248.271 93.1048 247.988 92.9331 247.757 93.0104C247.511 93.092 247.375 93.3409 247.433 93.6028Z" fill="white"/>
<path d="M251.84 94.5685C252.037 95.1567 252.206 95.7534 252.342 96.3587C252.395 96.6034 252.679 96.7751 252.909 96.6978C253.156 96.6162 253.292 96.3673 253.234 96.1054C253.098 95.5001 252.93 94.9034 252.732 94.3153C252.65 94.0792 252.412 93.8946 252.165 93.9761C251.939 94.0491 251.754 94.311 251.84 94.5685Z" fill="white"/>
<path d="M244.78 92.0144C244.912 91.2245 245.047 90.4346 245.179 89.6405C245.22 89.3915 245.117 89.1081 244.854 89.048C244.628 88.9965 244.328 89.121 244.287 89.3872C244.155 90.1771 244.019 90.9669 243.888 91.7611C243.847 92.0101 243.949 92.2934 244.213 92.3535C244.435 92.405 244.735 92.2806 244.78 92.0144Z" fill="white"/>
<path d="M248.231 88.2276C248.539 88.9875 248.847 89.7473 249.156 90.5072C249.197 90.6102 249.333 90.7003 249.431 90.7304C249.542 90.7604 249.69 90.7476 249.789 90.6832C250.023 90.5286 250.056 90.271 249.954 90.0221C249.645 89.2622 249.337 88.5024 249.028 87.7426C248.987 87.6395 248.851 87.5494 248.753 87.5193C248.642 87.4893 248.494 87.5022 248.395 87.5666C248.161 87.7211 248.128 87.9744 248.231 88.2276Z" fill="white"/>
<path d="M244.96 85.318C245.252 85.9362 245.548 86.5587 245.84 87.1768C245.947 87.4044 246.272 87.4859 246.473 87.3486C246.696 87.1983 246.753 86.9321 246.638 86.6875C246.346 86.0693 246.05 85.4468 245.758 84.8287C245.651 84.6011 245.326 84.5196 245.125 84.6569C244.903 84.8072 244.845 85.0776 244.96 85.318Z" fill="white"/>
<path d="M242.177 85.0513C242.264 84.5189 242.35 83.9866 242.436 83.4543C242.457 83.3212 242.457 83.201 242.391 83.0808C242.333 82.9821 242.227 82.8834 242.116 82.8576C241.893 82.8061 241.589 82.9306 241.548 83.1967C241.462 83.7291 241.375 84.2614 241.289 84.7937C241.268 84.9268 241.268 85.047 241.334 85.1672C241.392 85.2659 241.499 85.3646 241.61 85.3904C241.832 85.4419 242.136 85.3174 242.177 85.0513Z" fill="white"/>
<path d="M239.86 75.6286C239.309 74.7486 238.454 74.2592 237.706 73.8943C237.463 73.7569 237.192 73.6668 236.895 73.6196C236.604 73.5638 236.316 73.5595 236.044 73.6067C235.222 73.7011 234.325 74.0746 233.536 74.7228C231.883 76.0794 231.315 78.1013 232.261 79.2432C233.026 80.1619 233.922 80.0202 235.345 79.299C237.031 81.2437 238.549 81.1149 239.552 80.501C240.798 79.7455 241.004 77.4702 239.86 75.6286Z" fill="white" stroke="#010001" stroke-miterlimit="10"/>
<path d="M239.675 65.3763C239.174 65.3935 238.717 65.5781 238.351 65.8743L238.302 64.4319C238.228 62.1481 236.595 60.3365 234.671 60.4052L231.78 60.5082C229.86 60.5769 228.35 62.5001 228.424 64.7839L228.577 69.4588C228.651 71.7426 230.283 73.5542 232.208 73.4855L233.877 73.4254L233.959 75.9453C233.992 76.9799 234.831 77.7955 235.818 77.7569L236.965 77.714C237.956 77.6796 238.738 76.8039 238.701 75.7736L238.606 72.9275L238.602 72.7686L238.507 69.9225C238.507 69.8667 238.499 69.8108 238.491 69.755C238.873 70.0126 239.33 70.1543 239.823 70.1371C241.094 70.0899 242.089 68.9866 242.044 67.673C242.011 66.3594 240.946 65.3291 239.675 65.3763Z" fill="white" stroke="#010001" stroke-miterlimit="10"/>
<path d="M238.521 68.1156C238.521 68.1156 238.365 66.5015 239.964 66.626" stroke="#010001" stroke-miterlimit="10" stroke-linecap="round"/>
<path d="M234.264 66.1064C234.277 66.4799 233.997 66.7976 233.635 66.8105C233.277 66.8233 232.973 66.5314 232.961 66.1537C232.949 65.7802 233.228 65.4625 233.59 65.4496C233.948 65.4367 234.252 65.733 234.264 66.1064Z" fill="#010001"/>
<path d="M229.996 66.1583C230.008 66.4802 229.765 66.7464 229.457 66.7593C229.149 66.7722 228.894 66.5189 228.881 66.1969C228.869 65.875 229.112 65.6088 229.42 65.5959C229.728 65.5873 229.987 65.8406 229.996 66.1583Z" fill="#010001"/>
<path d="M236.608 68.5284C236.637 69.46 235.938 70.2456 235.046 70.2756C234.153 70.3057 233.401 69.5759 233.372 68.6444C233.343 67.7128 234.042 66.9272 234.935 66.8972C235.827 66.8628 236.579 67.5926 236.608 68.5284Z" fill="#ED80A5"/>
<path d="M229.009 67.5106C228.911 67.5149 228.816 67.5321 228.726 67.5578L228.783 69.3093C228.791 69.5712 228.808 69.8245 228.87 70.0692C228.939 70.0777 229.026 70.0863 229.096 70.082C229.774 70.0563 230.309 69.4639 230.284 68.7513C230.264 68.0429 229.692 67.4849 229.009 67.5106Z" fill="#ED80A5"/>
<path d="M234.622 64.8444C234.273 64.6684 233.911 64.5267 233.532 64.428C233.45 64.4065 233.364 64.4538 233.343 64.5396C233.323 64.6212 233.368 64.7156 233.45 64.7371C233.8 64.8272 234.141 64.956 234.466 65.1192C234.54 65.1578 234.635 65.1406 234.676 65.0633C234.717 64.9904 234.7 64.8788 234.622 64.8444Z" fill="#010001"/>
<path d="M229.967 64.8359C229.581 64.8359 229.194 64.8703 228.812 64.939C228.729 64.9518 228.684 65.0592 228.705 65.1364C228.729 65.2266 228.812 65.2652 228.894 65.2481C229.247 65.1837 229.605 65.1536 229.967 65.1579C230.049 65.1579 230.123 65.0849 230.123 64.9948C230.123 64.9089 230.053 64.8359 229.967 64.8359Z" fill="#010001"/>
<path d="M231.213 65.4926C231.036 66.1151 230.773 66.7075 230.432 67.2527C230.374 67.3471 230.436 67.4544 230.522 67.4888C230.818 67.609 231.127 67.6863 231.443 67.7292C231.525 67.7421 231.599 67.6476 231.599 67.566C231.599 67.4716 231.53 67.4158 231.443 67.4029C231.155 67.3643 230.872 67.287 230.604 67.1754C230.633 67.2527 230.666 67.3342 230.695 67.4115C231.048 66.8449 231.32 66.2224 231.505 65.5742C231.571 65.381 231.27 65.2951 231.213 65.4926Z" fill="#010001"/>
<path d="M239.869 57.8256C240.263 58.4781 241.094 58.6713 241.719 58.2592C242.344 57.8471 242.529 56.9799 242.134 56.3274C241.74 55.6749 240.909 55.4817 240.284 55.8938C239.659 56.3102 239.474 57.1731 239.869 57.8256Z" fill="#106EBE"/>
<path d="M242.735 54.2499C242.735 54.2499 240.692 51.6527 241.411 48.0166C242.127 44.3806 246.173 42.0066 248.945 42.7493C251.716 43.492 253.004 43.6422 254.282 40.7789C255.561 37.9113 258.621 34.3396 265.447 35.8765C272.273 37.4133 272.224 46.0462 271.607 48.7636C270.822 52.2193 268.56 54.1168 265.632 55.8039C262.7 57.491 258.44 57.5468 255.652 54.8766C252.864 52.2065 250.857 52.5842 250.676 54.8551C250.466 57.375 244.796 57.7872 242.735 54.2499Z" stroke="#B1D5F1" stroke-miterlimit="10"/>
<path d="M239.462 58.7704C237.036 56.3836 233.631 56.3106 230.531 58.4055C227.43 60.5004 227.607 63.7458 227.813 64.2009C227.932 64.4713 228.096 64.6731 228.433 64.7289C228.725 64.7547 229.215 64.6817 230.087 64.4585C232.591 63.8059 234.112 61.4663 234.112 61.4663C234.112 61.4663 233.911 61.887 234.832 63.763C235.523 65.1711 237.192 65.9953 238.039 66.3344C238.286 65.961 238.895 65.4329 239.651 65.3728C240.194 65.3299 240.823 65.6218 241.235 65.9309C241.835 64.613 241.695 60.9641 239.462 58.7704Z" fill="#010001"/>
<path d="M230.308 69.7773C230.333 70.2796 230.637 70.7218 231.098 70.8849C231.55 71.048 232.072 70.8849 232.368 70.4942C232.541 70.2667 232.628 69.992 232.623 69.7043C232.619 69.4983 232.311 69.4983 232.315 69.7043C232.323 70.1851 231.97 70.6101 231.501 70.6273C231.036 70.6445 230.641 70.2624 230.617 69.7773C230.608 69.5713 230.3 69.5713 230.308 69.7773Z" fill="#010001"/>
<path d="M197.92 137.596L198.208 146.384L204.677 147.234L204.796 137.764L197.92 137.596Z" fill="white" stroke="#005A9E" stroke-miterlimit="10"/>
<path d="M198.928 137.621L199.426 146.593" stroke="#005A9E" stroke-miterlimit="10"/>
<path d="M200.42 137.659L200.918 146.631" stroke="#005A9E" stroke-miterlimit="10"/>
<path d="M201.823 137.531L202.078 146.679" stroke="#005A9E" stroke-miterlimit="10"/>
<path d="M203.11 137.63L203.373 146.851" stroke="#005A9E" stroke-miterlimit="10"/>
<path d="M186.135 157.784L206.836 157.346L206.129 144.575L196.432 145.46L196.227 150.461L186.135 157.784Z" fill="white" stroke="#0F110E" stroke-miterlimit="10"/>
<path d="M192.106 152.26L193.434 155.196" stroke="#101010" stroke-miterlimit="10" stroke-linecap="round"/>
<path d="M193.99 151.135L195.318 154.072" stroke="#101010" stroke-miterlimit="10" stroke-linecap="round"/>
<path d="M195.421 150.663C195.421 150.663 190.047 148.517 190.89 146.92C192.251 144.348 195.421 150.663 195.421 150.663Z" stroke="#101010" stroke-miterlimit="10" stroke-linecap="round"/>
<path d="M194.122 145.322L195.565 150.757" stroke="#101010" stroke-miterlimit="10" stroke-linecap="round"/>
<path d="M198.505 150.911C198.554 152.35 199.71 153.479 201.087 153.427C202.465 153.376 203.546 152.169 203.497 150.731C203.448 149.293 202.292 148.164 200.915 148.216C199.537 148.267 198.46 149.473 198.505 150.911Z" fill="#F19101"/>
<path d="M182.228 118.381L176.8 125.104L181.052 130.264L187.225 123.322L182.228 118.381Z" fill="white" stroke="#005A9E" stroke-miterlimit="10"/>
<path d="M182.961 119.106L177.57 126.108" stroke="#005A9E" stroke-miterlimit="10"/>
<path d="M184.042 120.185L178.651 127.186" stroke="#005A9E" stroke-miterlimit="10"/>
<path d="M185.165 121.068L179.482 128.031" stroke="#005A9E" stroke-miterlimit="10"/>
<path d="M186.057 122.043L180.329 129.066" stroke="#005A9E" stroke-miterlimit="10"/>
<path d="M160.516 125.113L176.159 139.279L183.836 129.307L176.072 123.172L172.709 126.744L160.516 125.113Z" fill="white" stroke="#0F110E" stroke-miterlimit="10"/>
<path d="M168.495 125.194L167.599 128.302" stroke="#101010" stroke-miterlimit="10" stroke-linecap="round"/>
<path d="M170.617 125.675L169.717 128.787" stroke="#101010" stroke-miterlimit="10" stroke-linecap="round"/>
<path d="M171.981 126.327C171.981 126.327 169.37 120.97 171.027 120.377C173.688 119.424 171.981 126.327 171.981 126.327Z" stroke="#101010" stroke-miterlimit="10" stroke-linecap="round"/>
<path d="M174.449 121.455L172.027 126.499" stroke="#101010" stroke-miterlimit="10" stroke-linecap="round"/>
<path d="M174.111 128.675C173.223 129.778 173.355 131.422 174.411 132.35C175.468 133.277 177.043 133.139 177.931 132.036C178.82 130.933 178.688 129.289 177.631 128.361C176.574 127.43 174.999 127.572 174.111 128.675Z" fill="#F19101"/>
<path d="M234.207 109.246L231.049 107.447C231.049 107.447 220.468 102.055 217.532 100.75C214.6 99.4452 207.515 96.5303 205.496 96.0882C203.477 95.646 200.52 94.693 196.116 97.9942C196.116 97.9942 189.006 103.592 188.196 104.326C187.386 105.06 177.208 115.213 177.208 115.213L190.367 127.07L194.508 122.232L193.241 138.742L209.04 138.918L208.802 122.275C208.802 122.275 208.683 121.798 209.394 121.845C210.105 121.897 221.29 122.232 221.29 122.232C221.29 122.232 223.305 122.292 224.21 122.614C225.115 122.936 232.677 124.683 236.3 123.554C239.927 122.425 241.123 120.678 241.629 119.476C242.135 118.274 242.628 116.737 242.69 115.539C242.752 114.35 234.207 109.246 234.207 109.246Z" fill="#106EBE"/>
<path d="M233.241 108.62C233.241 108.62 208.543 95.097 201.692 95.522C194.841 95.947 177.212 115.213 177.212 115.213L190.371 127.07L194.533 122" stroke="#010001" stroke-miterlimit="10" stroke-linecap="round"/>
<path d="M198.422 108.916C198.422 108.916 218.72 121.184 224.477 122.696C230.074 124.168 245.227 127.323 242.406 110.152" stroke="#010001" stroke-miterlimit="10" stroke-linecap="round"/>
<path d="M200.98 110.439C200.98 110.439 195.787 110.752 195.248 114.573C194.709 118.389 193.25 138.75 193.25 138.75L209.048 138.926L208.748 118.007" stroke="#010001" stroke-miterlimit="10" stroke-linecap="round"/>
<path d="M208.797 121.872L222.939 122.18" stroke="#010001" stroke-miterlimit="10" stroke-linecap="round"/>
<path d="M244.318 122.175H216.355V179.296H244.318V122.175Z" fill="#958F99" stroke="#010001" stroke-miterlimit="10"/>
<path d="M208.506 157.609H180.543V179.477H208.506V157.609Z" fill="#BFBCC0" stroke="#010001" stroke-miterlimit="10"/>
<path d="M135.164 115.436H107.202V179.296H135.164V115.436Z" fill="#BFBCC0" stroke="#010001" stroke-miterlimit="10"/>
<path d="M172.647 142.107H144.685V179.296H172.647V142.107Z" fill="#958F99" stroke="#010001" stroke-miterlimit="10"/>
<path d="M100.211 131.233H72.2485V179.296H100.211V131.233Z" fill="#958F99" stroke="#010001" stroke-miterlimit="10"/>
<path d="M94.0199 72.7348L90.1709 68.7597C90.1709 68.7597 93.9705 64.8102 94.7354 63.9645C95.4961 63.1231 96.5406 62.4363 97.3795 63.3035C98.2184 64.1706 98.9668 67.3559 98.1732 68.266C97.3754 69.1761 94.0199 72.7348 94.0199 72.7348Z" fill="white"/>
<path d="M55.3326 58.5175C55.3326 58.5175 59.5188 57.088 73.4837 72.7354L89.6157 67.863L95.3768 74.5255C95.3768 74.5255 82.5222 88.0652 74.9312 89.8038C70.708 90.774 65.0702 90.8384 59.9834 81.7289C54.8967 72.6195 55.3326 58.5175 55.3326 58.5175Z" fill="#106EBE" stroke="#010001" stroke-miterlimit="10" stroke-linecap="round"/>
<path d="M92.3996 77.4917C94.0651 75.7144 95.3768 74.5253 95.3768 74.5253L89.6157 67.8628L86.0669 69.1421L92.3996 77.4917Z" fill="#106EBE" stroke="#010001" stroke-miterlimit="10" stroke-linecap="round"/>
<path d="M70.3579 75.3748C70.3579 75.3748 72.4469 73.0481 74.9348 72.2969" stroke="#010001" stroke-miterlimit="10" stroke-linecap="round"/>
<path d="M62.7599 158.073L62.2911 167.522L56.5464 168.531L56.5875 158.614L62.7599 158.073Z" fill="white" stroke="#010001" stroke-miterlimit="10"/>
<path d="M75.7132 179.361L53.6885 179.254L54.2395 165.659L64.5693 166.431L64.8653 171.746L75.7132 179.361Z" fill="#106EBE"/>
<path d="M69.2776 173.591L67.9082 176.734" stroke="#010001" stroke-miterlimit="10" stroke-linecap="round"/>
<path d="M67.2536 172.423L65.8843 175.57" stroke="#010001" stroke-miterlimit="10" stroke-linecap="round"/>
<path d="M65.7251 171.947C65.7251 171.947 71.4081 169.569 70.4829 167.886C68.9943 165.177 65.7251 171.947 65.7251 171.947Z" stroke="#010001" stroke-miterlimit="10" stroke-linecap="round"/>
<path d="M67.0202 166.242L65.5728 172.05" stroke="#010001" stroke-miterlimit="10" stroke-linecap="round"/>
<path d="M57.9974 179.275C58.3223 178.648 58.4991 177.923 58.4662 177.158C58.3716 174.905 56.5417 173.149 54.3787 173.243C54.2266 173.252 54.0744 173.269 53.9264 173.295L53.9141 173.578C54.0703 173.548 54.2266 173.527 54.3911 173.522C56.406 173.432 58.1167 175.068 58.203 177.171C58.2359 177.935 58.0468 178.657 57.6973 179.275H57.9974Z" fill="white"/>
<path d="M75.7132 179.361L53.6885 179.254L54.2395 165.659" stroke="#010001" stroke-miterlimit="10" stroke-linecap="round"/>
<path d="M51.3194 160.375L65.5722 160.005L68.3479 97.0464L48.2559 97.0078L51.3194 160.375Z" fill="#010001"/>
<path d="M48.2559 97.0078L51.3194 160.375" stroke="white" stroke-miterlimit="10" stroke-linecap="round"/>
<path d="M51.0312 154.402H65.7734" stroke="white" stroke-miterlimit="10" stroke-linecap="round"/>
<path d="M30.7548 157.459L29.1182 166.762L34.4845 169.132L36.6393 159.473L30.7548 157.459Z" fill="white" stroke="#010001" stroke-miterlimit="10"/>
<path d="M14.2231 179.283L36.2479 179.172L37.0662 165.748L26.4774 166.267L25.071 171.668L14.2231 179.283Z" fill="#106EBE"/>
<path d="M20.6636 173.509L22.0288 176.655" stroke="#010001" stroke-miterlimit="10" stroke-linecap="round"/>
<path d="M22.6831 172.346L24.0525 175.493" stroke="#010001" stroke-miterlimit="10" stroke-linecap="round"/>
<path d="M24.2127 171.865C24.2127 171.865 18.5296 169.487 19.4549 167.804C20.9435 165.095 24.2127 171.865 24.2127 171.865Z" stroke="#010001" stroke-miterlimit="10" stroke-linecap="round"/>
<path d="M22.916 166.164L24.3635 171.972" stroke="#010001" stroke-miterlimit="10" stroke-linecap="round"/>
<path d="M31.9385 179.193C31.6136 178.567 31.4368 177.841 31.4697 177.077C31.5643 174.823 33.3942 173.067 35.5572 173.162C35.7094 173.17 36.3961 173.243 36.5441 173.269L36.4866 173.561C36.3303 173.531 35.7094 173.445 35.5449 173.437C33.5299 173.346 31.8193 174.982 31.7329 177.085C31.7 177.85 31.8892 178.571 32.2387 179.189L31.9385 179.193Z" fill="white"/>
<path d="M14.2231 179.284L36.2479 179.172L36.9716 165.684" stroke="#010001" stroke-miterlimit="10" stroke-linecap="round"/>
<path d="M38.0036 98.1494L27.1763 158.661L41.795 161.971L57.927 99.1067L38.0036 98.1494Z" fill="#010001"/>
<path d="M41.7949 161.971L56.4836 104.73H60.8425" stroke="white" stroke-miterlimit="10" stroke-linecap="round"/>
<path d="M35.96 109.577C35.96 109.577 40.545 109.568 43.2632 104.052" stroke="white" stroke-miterlimit="10" stroke-linecap="round"/>
<path d="M28.04 153.823L43.0453 157.107" stroke="white" stroke-miterlimit="10" stroke-linecap="round"/>
<path d="M66.7272 75.534L69.0629 100.682H36.84C36.84 100.682 36.8071 81.939 37.7282 73.7568C38.6493 65.5746 46.409 59.4401 50.5335 59.6033C54.658 59.7707 58.1821 60.655 58.1821 60.655L66.7272 75.534Z" fill="#106EBE"/>
<path d="M65.7524 73.8375L69.0668 100.685H36.8439C36.8439 100.685 36.811 81.9424 37.7321 73.7602C38.6533 65.578 46.4129 59.4436 50.5374 59.6067C54.6619 59.7741 58.186 60.6584 58.186 60.6584" stroke="#010001" stroke-miterlimit="10" stroke-linecap="round"/>
<path d="M36.84 100.681H69.0629L68.4091 95.3662H36.8688C36.8359 98.53 36.84 100.681 36.84 100.681Z" fill="#106EBE" stroke="#010001" stroke-miterlimit="10" stroke-linecap="round"/>
<path d="M140.51 59.2069C150.727 48.5414 150.727 31.2491 140.51 20.5836C130.294 9.91803 113.729 9.91803 103.513 20.5836C93.2959 31.2491 93.2959 48.5414 103.513 59.2069C113.729 69.8725 130.294 69.8725 140.51 59.2069Z" fill="white" stroke="#010001" stroke-miterlimit="10"/>
<path d="M121.964 84.9738L130.69 71.799C132.467 69.1203 135.999 68.4763 138.536 70.3695L139.762 71.2839C142.805 73.5591 147.09 72.1253 148.299 68.4248L152.534 55.4862C154.257 50.2231 161.388 50.2231 163.111 55.4862L165.163 61.7494C166.808 66.7721 173.498 67.0769 175.558 62.2259L177.335 58.0361C179.107 53.8592 184.584 53.3354 187.056 57.1089C189.651 61.0755 195.469 60.2469 196.958 55.7051L198.94 49.6522C200.762 44.0929 208.427 44.5136 209.677 50.2446L217.26 84.9781C217.26 84.9738 122.228 84.6947 121.964 84.9738Z" fill="#F19101"/>
<path d="M211.335 72.4978C209.673 69.0593 205.097 68.4239 202.81 71.4418C202.732 71.5448 202.658 71.6521 202.584 71.7638C202.584 71.7638 200.096 76.5159 198.76 77.602C195.482 80.2722 191.42 80.8603 187.02 74.7215L184.268 71.1499C182.439 68.7759 179.149 68.3252 176.793 70.1239L173.61 72.5536C172.113 73.6955 170.069 75.9107 168.498 75.0134C166.755 74.0218 162.092 70.1239 162.092 70.1239C159.735 68.3252 156.446 68.7802 154.616 71.1499L151.865 74.7215C149.208 78.173 143.961 77.2758 142.493 73.1246L139.096 63.5301C137.316 58.4989 130.473 58.589 128.812 63.6632L121.99 84.5049L121.463 85.1145C121.463 85.1145 121.579 85.1145 121.792 85.1145L121.727 85.3206C121.727 84.9128 217.433 85.1145 217.433 85.1145L211.335 72.4978Z" fill="#005A9E"/>
<path d="M103.307 85.3037H224.443" stroke="#010001" stroke-miterlimit="10" stroke-linecap="round"/>
<path d="M133.355 34.7559V35.5754" stroke="#010001" stroke-width="0.4763" stroke-miterlimit="10"/>
<path d="M133.355 37.1606V83.8325" stroke="#010001" stroke-width="0.4763" stroke-miterlimit="10" stroke-dasharray="3.69 3.69"/>
<path d="M133.355 84.6226V85.4421" stroke="#010001" stroke-width="0.4763" stroke-miterlimit="10"/>
<path d="M157.247 37.8044V86.5712" stroke="#010001" stroke-width="0.4763" stroke-miterlimit="10" stroke-dasharray="3.81 3.81"/>
<path d="M204.656 30.6343V85.8961" stroke="#010001" stroke-width="0.4763" stroke-miterlimit="10" stroke-dasharray="3.81 3.81"/>
<path d="M181.229 48.0083V85.4419" stroke="#010001" stroke-width="0.4763" stroke-miterlimit="10" stroke-dasharray="3.81 3.81"/>
<path d="M197.801 46.5564H180.83C180.489 46.5564 180.213 46.2688 180.213 45.9125C180.213 45.5562 180.489 45.2686 180.83 45.2686H197.801C198.142 45.2686 198.418 45.5562 198.418 45.9125C198.414 46.2688 198.138 46.5564 197.801 46.5564Z" fill="#BFBCC0"/>
<path d="M221.117 29.3506H204.146C203.804 29.3506 203.529 29.063 203.529 28.7067C203.529 28.3504 203.804 28.0627 204.146 28.0627H221.117C221.458 28.0627 221.733 28.3504 221.733 28.7067C221.729 29.063 221.458 29.3506 221.117 29.3506Z" fill="#BFBCC0"/>
<path d="M215.882 26.7926H203.899C203.698 26.7926 203.533 26.6209 203.533 26.4105V25.8911C203.533 25.6807 203.698 25.509 203.899 25.509H215.882C216.084 25.509 216.248 25.6807 216.248 25.8911V26.4105C216.248 26.6209 216.084 26.7926 215.882 26.7926Z" fill="#BFBCC0"/>
<path d="M173.913 36.4597H156.943C156.601 36.4597 156.326 36.1721 156.326 35.8158C156.326 35.4595 156.601 35.1719 156.943 35.1719H173.913C174.255 35.1719 174.53 35.4595 174.53 35.8158C174.526 36.1721 174.251 36.4597 173.913 36.4597Z" fill="#BFBCC0"/>
<path d="M150.202 33.5232H133.232C132.89 33.5232 132.615 33.2356 132.615 32.8793C132.615 32.523 132.89 32.2354 133.232 32.2354H150.202C150.544 32.2354 150.819 32.523 150.819 32.8793C150.819 33.2356 150.544 33.5232 150.202 33.5232Z" fill="#BFBCC0"/>
<path d="M142.221 30.6339H132.944C132.763 30.6339 132.619 30.4837 132.619 30.2948V29.6895C132.619 29.5006 132.763 29.3503 132.944 29.3503H142.221C142.401 29.3503 142.545 29.5006 142.545 29.6895V30.2948C142.545 30.4837 142.397 30.6339 142.221 30.6339Z" fill="#BFBCC0"/>
<path d="M192.759 43.9891H180.587C180.382 43.9891 180.217 43.8174 180.217 43.6028V43.0919C180.217 42.8773 180.382 42.7056 180.587 42.7056H192.759C192.965 42.7056 193.129 42.8773 193.129 43.0919V43.6028C193.125 43.8174 192.961 43.9891 192.759 43.9891Z" fill="#BFBCC0"/>
<path d="M111.477 44.4354L127.959 41.8081C129.341 51.2481 123.037 60.1987 113.994 61.6411C104.951 63.0835 96.3774 56.5026 94.9957 47.0626C93.614 37.6226 99.918 28.672 108.961 27.2296C110.4 26.9978 111.864 26.9678 113.311 27.1352L111.477 44.4354Z" fill="#F19101"/>
<path d="M116.828 27.1909L114.825 40.5288L127.367 38.069C127.367 38.069 125.521 30.5951 116.828 27.1909Z" fill="#005A9E"/>
<path d="M79.7569 80.2703L76.8208 76.4239L100.092 57.0889L102.756 61.0898L79.7569 80.2703Z" fill="#958F99" stroke="#0F110E" stroke-miterlimit="10"/>
<path d="M77.179 75.3931L46.2967 100.794C44.9397 101.919 44.4955 103.692 45.3056 104.752L46.3213 106.083C47.1314 107.143 48.8832 107.087 50.2402 105.962L80.6703 80.2483L77.179 75.3931Z" fill="#F19101" stroke="#0F110E" stroke-miterlimit="10"/>
<path d="M150.079 48.8337C151.679 42.9139 151.568 36.7064 149.717 30.8639C145.992 19.1143 135.02 10.7304 123.169 10.5716C117.211 10.49 111.453 12.2501 106.498 15.7187C101.593 19.153 97.7559 24.2786 95.7162 30.0611C93.7547 35.616 93.3641 41.8364 94.7581 47.5845C96.2631 53.7834 99.5364 59.2825 104.216 63.4251C113.074 71.2639 126.377 72.6118 136.48 66.6104C137.858 65.7948 139.182 64.8933 140.424 63.8673C145.001 60.0295 148.479 54.7493 150.079 48.8337ZM135.925 61.2529C135.629 61.4633 135.325 61.6651 135.02 61.8668C134.996 61.884 134.942 61.9183 134.897 61.9441C134.749 62.0342 134.601 62.1244 134.453 62.2103C133.285 62.8885 132.072 63.4766 130.818 63.9617C130.275 64.1721 129.728 64.3567 129.177 64.5327C129.132 64.5413 128.737 64.6615 128.63 64.6872C128.264 64.7817 127.894 64.8718 127.524 64.9491C126.282 65.211 125.028 65.3827 123.761 65.4599C123.593 65.4685 123.42 65.4771 123.251 65.4857C123.202 65.49 123.091 65.49 123.013 65.4943C122.783 65.4943 122.548 65.4943 122.318 65.49C121.639 65.4771 120.957 65.4342 120.282 65.3655C119.674 65.3011 119.065 65.2195 118.461 65.1122C118.16 65.0607 117.856 65.0006 117.556 64.9362C117.387 64.9019 117.223 64.8632 117.058 64.8246C117.013 64.8117 116.865 64.7774 116.766 64.7473C115.603 64.4254 114.464 64.0347 113.349 63.5539C112.778 63.3092 112.214 63.0388 111.663 62.7511C111.511 62.6696 111.355 62.588 111.203 62.5065C111.17 62.4893 111.1 62.4506 111.042 62.4163C110.763 62.2489 110.479 62.0815 110.203 61.9055C109.068 61.18 107.991 60.3643 106.975 59.4671C106.757 59.2739 106.548 59.0808 106.334 58.8833C106.202 58.7588 106.071 58.6343 105.943 58.5055C105.935 58.4969 105.931 58.4926 105.927 58.4883C105.906 58.4669 105.886 58.4454 105.857 58.4154C105.38 57.9002 104.907 57.3851 104.459 56.8399C103.579 55.771 102.81 54.6334 102.074 53.4528C102.053 53.4185 102.037 53.3927 102.02 53.367C102.016 53.3584 102.012 53.3541 102.008 53.3455C101.917 53.1867 101.831 53.0236 101.745 52.8604C101.605 52.6029 101.473 52.341 101.342 52.0791C101.021 51.4266 100.721 50.7612 100.449 50.083C100.207 49.4777 99.9888 48.8681 99.7873 48.2456C99.6886 47.9365 99.5981 47.6274 99.5076 47.3141C99.4953 47.2754 99.4912 47.2625 99.4871 47.2454C99.483 47.2282 99.4789 47.2196 99.4748 47.1939C99.4213 46.9835 99.3719 46.7775 99.3226 46.5671C99.0265 45.2793 98.8168 43.9699 98.7017 42.652C98.6729 42.3344 98.6523 42.0124 98.6317 41.6947C98.6235 41.5531 98.6153 41.4114 98.6112 41.2697C98.6112 41.2783 98.6071 41.0723 98.5989 40.9435C98.5989 40.8147 98.5947 40.6043 98.5947 40.6172C98.5947 40.4756 98.5989 40.3339 98.5989 40.1922C98.6071 39.8359 98.6194 39.4839 98.64 39.1276C98.7181 37.7796 98.8867 36.4403 99.1499 35.1181C99.1787 34.9807 99.2075 34.839 99.2362 34.7017C99.2321 34.7103 99.2815 34.5085 99.3103 34.384C99.3432 34.2595 99.3925 34.0577 99.3925 34.0663C99.4295 33.929 99.4665 33.7916 99.5035 33.6542C99.6927 32.9717 99.9106 32.2934 100.153 31.6237C100.371 31.0227 100.61 30.426 100.869 29.8422C100.984 29.5803 101.103 29.3227 101.227 29.0652C101.305 28.9063 101.383 28.7432 101.461 28.5844C101.481 28.5371 101.506 28.4942 101.531 28.4513C101.539 28.4341 101.551 28.4169 101.568 28.3826C102.209 27.2149 102.917 26.0902 103.71 25.0299C104.101 24.5061 104.512 23.9996 104.936 23.5059C105.055 23.3685 105.174 23.2312 105.298 23.0981C105.306 23.0895 105.31 23.0852 105.314 23.0809C105.335 23.0595 105.355 23.038 105.384 23.0079C105.643 22.7461 105.898 22.4799 106.161 22.2266C107.148 21.2736 108.209 20.3979 109.323 19.6123C109.591 19.4234 109.862 19.2431 110.138 19.0585C110.175 19.0328 110.199 19.0156 110.228 18.9984C110.356 18.9212 110.483 18.8439 110.61 18.7666C111.194 18.4232 111.795 18.1012 112.403 17.805C113.563 17.2384 114.764 16.7747 115.989 16.3884C116.022 16.3841 116.528 16.2338 116.631 16.2081C116.931 16.1308 117.231 16.0578 117.535 15.9934C118.206 15.8475 118.884 15.7316 119.563 15.6371C120.171 15.5556 120.784 15.4955 121.397 15.4611C121.643 15.4482 121.89 15.4397 122.137 15.4311C122.207 15.4311 122.289 15.4268 122.33 15.4268C122.536 15.4268 122.737 15.4311 122.943 15.4354C124.201 15.4654 125.455 15.5942 126.697 15.8131C127.277 15.9162 127.849 16.0364 128.42 16.1823C128.49 16.1995 128.568 16.2209 128.609 16.2338C128.774 16.281 128.938 16.3283 129.103 16.3798C129.432 16.4785 129.757 16.5858 130.082 16.6975C131.315 17.1267 132.524 17.6548 133.684 18.2686C133.783 18.3202 134.14 18.5262 134.181 18.5477C134.44 18.7022 134.7 18.8568 134.959 19.0242C135.522 19.3848 136.073 19.7668 136.608 20.1747C137.122 20.561 137.619 20.9688 138.104 21.3938C138.347 21.6085 138.59 21.8274 138.824 22.0506C138.931 22.1494 139.034 22.2524 139.137 22.3511C139.174 22.3855 139.194 22.4069 139.215 22.4284C139.235 22.4499 139.256 22.4756 139.297 22.5186C140.259 23.5574 141.172 24.6263 141.99 25.794C142.373 26.3435 142.735 26.9059 143.08 27.4768C143.105 27.5154 143.121 27.5412 143.138 27.5712C143.212 27.7043 143.286 27.8374 143.36 27.9705C143.553 28.3268 143.734 28.6831 143.911 29.048C144.495 30.2543 144.992 31.5035 145.399 32.7871C145.486 33.0532 145.564 33.3237 145.638 33.5941C145.626 33.5684 145.782 34.1436 145.807 34.2552C145.963 34.9163 146.094 35.586 146.201 36.2557C146.304 36.891 146.382 37.5264 146.444 38.166C146.473 38.4837 146.497 38.8056 146.514 39.1233C146.526 39.2993 146.534 39.4796 146.538 39.6556C146.538 39.7071 146.547 39.8788 146.547 39.9862C146.559 41.2654 146.481 42.549 146.321 43.8154C146.238 44.4507 146.14 45.0775 146.016 45.7042C145.963 45.9833 145.901 46.258 145.839 46.5371C145.827 46.5843 145.815 46.6315 145.811 46.653C145.753 46.859 145.704 47.0651 145.646 47.2711C145.284 48.5719 144.828 49.8468 144.285 51.0832C144.158 51.3751 144.022 51.667 143.882 51.9546C143.837 52.0534 143.582 52.5428 143.574 52.5642C143.249 53.1523 142.916 53.7319 142.554 54.2985C141.83 55.4276 141.024 56.5008 140.148 57.501C140.049 57.6169 139.947 57.7285 139.848 57.8401C139.827 57.8616 139.803 57.8831 139.774 57.9174C139.544 58.1535 139.313 58.3896 139.075 58.6214C138.569 59.1151 138.043 59.583 137.504 60.0338C136.99 60.4588 136.464 60.8666 135.925 61.2529Z" fill="#958F99" stroke="#0F110E" stroke-miterlimit="10"/>
<path d="M102.021 66.6865C102.021 66.6865 102.724 65.6433 102.749 65.3643C102.774 65.0853 101.869 63.5956 101.437 63.0805C101.005 62.5654 100.216 61.9386 99.8993 61.8613C99.5826 61.7841 99.4798 62.4409 99.3071 62.2906C99.1344 62.1361 98.5669 61.8656 98.3654 62.1146C98.1639 62.3593 98.2585 62.9775 98.2585 62.9775C98.2585 62.9775 98.0036 62.9302 97.7075 62.9474C97.4114 62.9603 97.2839 63.2265 97.2551 63.484C97.2264 63.7416 97.2675 63.7674 97.0331 63.9004C96.7987 64.0335 96.7576 64.4928 96.7452 65.0595C96.7329 65.6262 97.1606 69.1592 97.0331 69.318C96.9056 69.4768 95.0428 70.7905 94.6439 71.1596C94.245 71.5288 94.2204 72.1427 94.3478 72.0654C94.4753 71.9839 96.1942 70.6574 97.4978 70.5372C98.8054 70.417 99.7636 69.7087 100.056 69.2965C100.352 68.8801 102.021 66.6865 102.021 66.6865Z" fill="white"/>
<path d="M99.1999 68.2186C99.1999 68.2186 98.032 64.1619 97.3 63.9816C96.5681 63.8013 96.6997 64.8702 96.7984 66.8449L97.0739 69.0514" stroke="#0F110E" stroke-miterlimit="10"/>
<path d="M100.154 67.159C100.154 67.159 99.0229 64.3558 98.879 64.1326C98.735 63.9093 98.3033 62.9091 97.7029 62.9391C97.1066 62.9692 97.2341 64.0639 97.2341 64.0639" stroke="#0F110E" stroke-miterlimit="10"/>
<path d="M101.63 66.0644C101.63 66.0644 99.7592 62.334 98.9902 62.0506C98.2212 61.7673 98.0978 62.4112 98.324 63.2698" stroke="#0F110E" stroke-miterlimit="10"/>
<path d="M99.5573 62.5791C99.5573 62.5791 99.1955 61.4501 100.396 62.0554C101.198 62.4589 102.674 64.7942 102.744 65.3609C102.814 65.9275 100.951 67.9065 100.351 68.881C99.7506 69.8555 98.7226 70.5853 97.16 70.5294C96.3869 70.5037 94.8695 71.7701 93.8291 72.736" stroke="#0F110E" stroke-miterlimit="10"/>
<path d="M45.9723 95.3714C45.9723 95.3714 59.3121 99.3079 62.0385 98.3807C64.3249 97.6037 57.6837 96.5734 57.6837 96.5734C57.6837 96.5734 62.3428 97.7797 62.8034 96.8224C63.2639 95.8651 57.8852 95.0881 57.8852 95.0881C57.8852 95.0881 63.3256 96.1398 63.4695 95.2469C63.6135 94.354 58.0374 93.6371 58.0374 93.6371C58.0374 93.6371 63.56 94.7661 63.7492 93.7272C63.9383 92.6884 58.2471 91.9886 58.2471 91.9886C58.2471 91.9886 61.8329 91.98 61.652 91.1644C61.471 90.3445 54.1514 90.8682 48.5383 88.8806C45.3226 87.7387 45.9723 95.3714 45.9723 95.3714Z" fill="white"/>
<path d="M58.3863 93.8682C59.6569 94.143 60.9728 94.3662 62.2764 94.3447C62.7164 94.3362 63.8308 94.3576 63.8801 93.6836C63.9212 93.1084 63.1482 92.8251 62.7493 92.6748C61.9227 92.3657 61.0386 92.2026 60.171 92.0609C59.587 91.9665 59.0031 91.8806 58.4151 91.8248C58.4151 91.9322 58.4151 92.0395 58.4151 92.1468C58.8633 92.1425 59.3115 92.121 59.7556 92.0867C60.3067 92.0438 61.0057 92.0395 61.5074 91.7604C61.9844 91.4986 61.9515 91.0521 61.4827 90.8203C60.9029 90.537 60.1504 90.5413 59.5171 90.4726C57.9668 90.3052 56.4165 90.2021 54.8663 90.0648C53.5586 89.9489 52.2509 89.6226 50.9638 89.3479C49.7014 89.0774 48.4184 88.8241 47.1765 88.455C46.9832 88.3991 46.9051 88.7082 47.0943 88.764C49.249 89.3994 51.4984 89.8372 53.7066 90.2193C54.7717 90.4039 55.8408 90.4425 56.9141 90.5413C57.7037 90.61 58.4932 90.6872 59.2786 90.7731C59.9201 90.8418 60.6726 90.8375 61.2771 91.0865C61.8282 91.314 61.1373 91.5716 60.8947 91.6231C60.5369 91.7003 60.171 91.7347 59.8091 91.7604C59.3444 91.7991 58.8797 91.8205 58.4109 91.8248C58.2094 91.8291 58.2177 92.1253 58.4109 92.1468C59.8379 92.2928 61.347 92.4859 62.6999 93.0011C62.9343 93.0912 63.4196 93.2501 63.5306 93.5248C63.7033 93.9584 62.8603 93.9927 62.63 94.0099C61.2483 94.1129 59.8132 93.8511 58.4644 93.5592C58.2752 93.5119 58.193 93.8253 58.3863 93.8682Z" fill="#0F110E"/>
<path d="M58.1405 95.2848C59.2343 95.508 60.3364 95.7012 61.4467 95.83C61.9895 95.8943 62.631 96.0103 63.1697 95.8557C63.5644 95.7441 63.8934 95.3749 63.6549 94.9456C63.4986 94.6623 63.1861 94.4863 62.9065 94.3661C62.3925 94.1429 61.8373 94.0484 61.2863 93.9883C61.0889 93.9669 61.0889 94.2888 61.2863 94.3103C61.7592 94.3618 62.2362 94.4434 62.6844 94.6151C62.9188 94.7052 63.1943 94.834 63.3506 95.0487C63.585 95.3749 63.182 95.5423 62.9188 95.5767C62.3842 95.6411 61.8168 95.5552 61.2863 95.4908C60.6242 95.4093 59.9622 95.3019 59.3042 95.1817C58.9424 95.1173 58.5805 95.0487 58.2227 94.9757C58.0295 94.937 57.9472 95.2461 58.1405 95.2848Z" fill="#0F110E"/>
<path d="M58.2425 96.8688C58.8306 96.9976 59.4309 97.0964 60.0272 97.1822C60.7797 97.2895 61.6227 97.4398 62.3794 97.2724C62.6343 97.2166 62.9756 97.0878 63.0496 96.7916C63.1278 96.4868 62.8564 96.2378 62.6384 96.0918C62.0504 95.6926 61.2979 95.5338 60.6194 95.3964C60.4261 95.3578 60.3439 95.6669 60.5371 95.7055C61.1128 95.8214 61.7132 95.9545 62.2437 96.2292C62.3876 96.3022 62.5439 96.388 62.6549 96.5125C62.7125 96.5769 62.7577 96.6542 62.7536 96.6971C62.7495 96.7401 62.7001 96.7959 62.6302 96.8388C62.511 96.9161 62.3629 96.9504 62.2272 96.9762C61.5199 97.1007 60.7345 96.9633 60.0313 96.8603C59.4597 96.7787 58.8881 96.68 58.3248 96.5555C58.1315 96.5168 58.0493 96.8259 58.2425 96.8688Z" fill="#0F110E"/>
<path d="M60.4149 97.2344C60.6781 97.2773 60.9412 97.3288 61.2003 97.3846C61.554 97.4619 62.1091 97.5263 62.3928 97.7838C62.4669 97.8525 62.4998 97.9126 62.4545 98.0328C62.3394 98.3204 61.9035 98.402 61.6485 98.4492C60.7192 98.6252 59.7199 98.5179 58.7906 98.4106C57.6433 98.2818 56.5494 98.0071 55.4268 97.7366C53.7285 97.3288 52.0302 96.9124 50.3401 96.4745C49.4519 96.247 48.5636 96.0109 47.6836 95.7576C47.1408 95.6031 46.5692 95.4614 46.0511 95.221C45.8702 95.1394 45.7139 95.4142 45.8948 95.5C47.1449 96.0796 48.576 96.3457 49.896 96.6892C51.7629 97.1742 53.638 97.6336 55.5173 98.0843C56.8496 98.402 58.1203 98.6853 59.4896 98.7969C60.3121 98.8613 61.225 98.9343 62.0269 98.6853C62.3106 98.5952 62.6478 98.4449 62.7506 98.123C62.7999 97.9727 62.7876 97.7881 62.7054 97.6508C62.5121 97.3331 61.9652 97.2344 61.6485 97.1528C61.2702 97.0541 60.8837 96.9768 60.4971 96.9167C60.3039 96.8952 60.2216 97.2043 60.4149 97.2344Z" fill="#0F110E"/>
<path d="M41.5308 73.2365L51.3177 57.7222C51.3177 57.7222 48.0115 58.2416 43.5704 60.6585C40.2724 62.4529 36.2836 65.4321 32.9075 69.3172C31.0776 71.4206 29.3875 73.4812 27.9894 76.3961C26.69 79.1177 25.1685 81.2384 24.5475 83.2646C21.8335 92.1551 25.4028 95.2503 29.5767 96.4093C34.6305 97.8088 46.8149 98.0277 46.8149 98.0277L50.5364 87.7635L38.4302 83.7841C38.4261 83.7883 40.1285 76.9799 41.5308 73.2365Z" fill="#106EBE"/>
<path d="M51.3184 57.7222C51.3184 57.7222 38.4268 59.6067 28.7344 75.1726C19.6548 89.7554 24.5194 95.0142 29.5733 96.4136C34.6272 97.8131 46.8115 98.032 46.8115 98.032L50.533 87.7678L34.9109 82.6336" stroke="#010001" stroke-miterlimit="10" stroke-linecap="round"/>
<path d="M38.4258 83.7886C38.4258 83.7886 40.1282 76.9802 41.5305 73.2368" stroke="#010001" stroke-miterlimit="10" stroke-linecap="round"/>
<path d="M50.5361 87.7676L47.1476 86.6558L43.4097 97.9245C45.4329 98.0103 46.8145 98.0361 46.8145 98.0361L50.5361 87.7676Z" fill="#106EBE" stroke="#010001" stroke-miterlimit="10"/>
<path d="M57.1454 61.1141C57.1454 62.7668 55.3442 64.1105 53.1196 64.1105C50.8949 64.1105 49.0938 62.7711 49.0938 61.1141C49.0938 59.4613 50.8949 58.1177 53.1196 58.1177C55.3442 58.1177 57.1454 59.4613 57.1454 61.1141Z" fill="white" stroke="#010001" stroke-miterlimit="10" stroke-linecap="round"/>
<path d="M53.9698 59.8999H52.6663H50.8281L51.042 61.5355L52.4113 63.9223H53.0076H53.6285H54.2248L55.59 61.5355L55.8038 59.8999H53.9698Z" fill="#F19101"/>
<path d="M52.5193 64.1236C53.0662 64.1236 53.6173 64.1236 54.1642 64.1236C54.4274 64.1236 54.4274 63.6943 54.1642 63.6943C53.6173 63.6943 53.0662 63.6943 52.5193 63.6943C52.252 63.6943 52.252 64.1236 52.5193 64.1236Z" fill="#010001"/>
<path d="M53.0868 56.4131C49.7601 56.4131 47.0625 58.3148 47.0625 60.663C47.0625 63.0112 49.7601 64.9129 53.0868 64.9129C56.4136 64.9129 59.1111 63.0112 59.1111 60.663C59.1111 58.3148 56.4136 56.4131 53.0868 56.4131ZM53.0868 63.4276C50.9197 63.4276 49.1638 62.187 49.1638 60.6587C49.1638 59.1305 50.9197 57.8898 53.0868 57.8898C55.2539 57.8898 57.0098 59.1305 57.0098 60.6587C57.0098 62.187 55.2539 63.4276 53.0868 63.4276Z" fill="#2B88D8" stroke="#010001" stroke-miterlimit="10" stroke-linecap="round"/>
<path d="M58.2475 58.4694L55.9323 56.4646L53.5185 55.5073L52.8071 55.6275L50.2411 56.4646L48.1274 58.2376L49.8093 63.3332L53.0867 60.56L56.3641 63.3332L58.2475 58.4694Z" fill="white" stroke="#010001" stroke-miterlimit="10" stroke-linecap="round"/>
<path d="M57.4039 41.0061H54.3116C52.2555 41.0061 50.5736 43.0066 50.5736 45.4492V50.4547C50.5736 50.5963 50.5819 50.7337 50.5901 50.8711C50.5572 51.017 50.5366 51.1716 50.5366 51.3304V54.3783V54.55V57.598C50.5366 58.7055 51.4043 59.607 52.4611 59.607H53.6865C54.7475 59.607 55.611 58.7012 55.611 57.598V54.9021H57.3998C59.4559 54.9021 61.1378 52.9016 61.1378 50.459V45.4535C61.1419 43.0066 59.46 41.0061 57.4039 41.0061Z" fill="white" stroke="#010001" stroke-miterlimit="10"/>
<path d="M50.9355 47.9478C50.9355 47.9478 51.6346 43.7323 51.8238 44.3547C52.0911 45.2433 52.0623 50.1629 52.9752 50.5965C54.1842 51.1675 54.6283 49.0082 57.0668 48.9223C59.5053 48.8364 60.9034 50.0857 61.1419 51.1031C61.3804 52.1205 60.1221 53.5715 59.3573 54.2411C58.3991 55.0783 55.6152 54.9022 55.6152 54.9022C55.6152 54.9022 53.2055 55.0568 52.1939 53.5715C51.1453 52.0217 50.9355 47.9478 50.9355 47.9478Z" fill="#010001"/>
<path d="M54.9536 47.0862C54.9536 47.4898 55.2661 47.816 55.6527 47.816C56.0392 47.816 56.3517 47.4898 56.3517 47.0862C56.3517 46.6827 56.0392 46.3564 55.6527 46.3564C55.262 46.3607 54.9536 46.687 54.9536 47.0862Z" fill="#010001"/>
<path d="M59.5186 46.9823C59.5186 47.3258 59.7858 47.6048 60.1148 47.6048C60.4438 47.6048 60.7111 47.3258 60.7111 46.9823C60.7111 46.6389 60.4438 46.3599 60.1148 46.3599C59.7817 46.3599 59.5186 46.6389 59.5186 46.9823Z" fill="#010001"/>
<path d="M58.8512 49.9579C58.8512 49.9579 58.5017 51.0225 57.7615 51.0955C57.0213 51.1685 56.4415 50.3099 56.4004 49.6445L58.8512 49.9579Z" fill="white"/>
<path d="M54.7518 46.2269C54.9451 46.1497 55.1466 46.0853 55.3481 46.038C55.4467 46.0123 55.5454 45.9908 55.6441 45.9737C55.6976 45.9651 55.751 45.9565 55.8045 45.9479C55.8785 45.935 55.7675 45.9522 55.8415 45.9436C55.8703 45.9393 55.9032 45.935 55.932 45.9307C56.0389 45.9178 56.1417 45.8406 56.1376 45.7161C56.1335 45.6088 56.0471 45.4886 55.932 45.5014C55.492 45.5487 55.0561 45.6517 54.6408 45.8148C54.5421 45.8535 54.4598 45.9608 54.4968 46.081C54.5297 46.1797 54.6449 46.2656 54.7518 46.2269Z" fill="#010001"/>
<path d="M59.2628 45.6649C59.3574 45.6563 59.4519 45.6563 59.5424 45.6606C59.5835 45.6606 59.6247 45.6649 59.6617 45.6692C59.6863 45.6735 59.7151 45.6735 59.7398 45.6778C59.748 45.6778 59.8056 45.6863 59.7645 45.682C59.9454 45.7078 60.1181 45.755 60.2908 45.8194C60.3936 45.8581 60.5211 45.7765 60.5417 45.6692C60.5663 45.549 60.5047 45.4459 60.3977 45.403C60.0359 45.2656 59.6411 45.2098 59.2546 45.2356C59.1476 45.2442 59.0448 45.33 59.0489 45.4502C59.0613 45.5576 59.1476 45.6735 59.2628 45.6649Z" fill="#010001"/>
<path d="M57.9591 46.3431C58.0783 46.635 58.2017 46.9226 58.3333 47.2102C58.3991 47.3476 58.4649 47.4807 58.5348 47.618C58.5677 47.6824 58.6006 47.7468 58.6335 47.8112C58.6499 47.8413 58.6664 47.8756 58.6828 47.9057C58.6952 47.9271 58.7075 47.9486 58.7157 47.9701C58.7198 47.9701 58.7157 47.9658 58.7116 47.9658C58.7198 47.9314 58.7322 47.8928 58.7404 47.8585C58.7363 47.867 58.7322 47.8713 58.7281 47.8799C58.7527 47.8542 58.7774 47.8284 58.8021 47.8026C58.761 47.8284 58.654 47.8413 58.5924 47.8542C58.5142 47.8713 58.4402 47.8885 58.3621 47.9057C58.2017 47.94 58.0413 47.9744 57.881 48.0044C57.7699 48.0259 57.7082 48.1632 57.737 48.2706C57.7699 48.3908 57.881 48.4423 57.992 48.4208C58.2552 48.3736 58.5142 48.3178 58.7733 48.2534C58.9049 48.2191 59.0488 48.1976 59.1064 48.0516C59.1639 47.9057 59.0776 47.7726 59.0118 47.6481C58.7651 47.1931 58.543 46.7208 58.3497 46.24C58.3086 46.1327 58.214 46.0555 58.0948 46.0898C58.0084 46.107 57.918 46.2358 57.9591 46.3431Z" fill="#010001"/>
<path d="M51.3797 48.8362L51.9513 44.9168C51.9513 44.9168 62.3427 46.2776 65.7106 41.006C69.0784 35.7387 65.5379 33.6524 63.8272 33.9486C62.1124 34.2448 60.1098 36.8076 60.1098 36.8076C60.1098 36.8076 61.7053 34.541 60.1098 34.1847C58.5143 33.8284 56.7543 35.5541 55.8372 37.3442C55.8372 37.3442 48.9864 36.6788 46.6712 41.006C44.3561 45.3332 46.0667 48.4756 50.3023 52.9444L51.429 50.0639L51.3797 48.8362Z" fill="#010001"/>
<path d="M51.7009 49.1375C51.7009 50.5542 50.603 51.7004 49.246 51.7004C47.889 51.7004 46.791 50.5542 46.791 49.1375C46.791 47.7209 47.889 46.5747 49.246 46.5747C50.603 46.5747 51.7009 47.7209 51.7009 49.1375Z" fill="white" stroke="#010001" stroke-miterlimit="10"/>
<path d="M50.6402 49.2571C50.6772 48.6389 50.3976 47.9434 49.8384 47.6773C49.5382 47.5313 49.201 47.5056 48.8761 47.5399C48.7857 47.5485 48.7075 47.6129 48.7075 47.7159C48.7075 47.8061 48.7857 47.9048 48.8761 47.8919C49.0242 47.8748 49.1722 47.8705 49.3202 47.8876C49.3696 47.8919 49.4066 47.9005 49.4724 47.9134C49.53 47.9263 49.5834 47.9477 49.641 47.9649C49.6492 47.9692 49.6615 47.9735 49.6698 47.9778C49.6328 47.9606 49.678 47.9821 49.6821 47.9864C49.7027 47.9993 49.7232 48.0078 49.7479 48.0207C49.7931 48.0465 49.8343 48.0765 49.8754 48.1066C49.8425 48.0808 49.8959 48.1237 49.9042 48.1323C49.9206 48.1452 49.9371 48.1624 49.9535 48.1796C49.9864 48.2139 50.0152 48.2482 50.0481 48.2869C50.0193 48.2482 50.0604 48.304 50.0645 48.3126C50.0769 48.3298 50.0892 48.347 50.0974 48.3641C50.1221 48.4028 50.1427 48.4414 50.1591 48.4843C50.1673 48.5058 50.1756 48.523 50.1879 48.5444C50.2002 48.5702 50.1714 48.5015 50.1879 48.5402C50.192 48.5487 50.1961 48.5573 50.2002 48.5659C50.2167 48.6088 50.229 48.6475 50.2414 48.6904C50.2619 48.7634 50.2784 48.8321 50.2907 48.905C50.2948 48.9222 50.2948 48.9351 50.2989 48.9523C50.3071 48.9995 50.2948 48.9136 50.2989 48.9609C50.303 48.9909 50.3072 49.021 50.3072 49.051C50.3113 49.1197 50.3154 49.1884 50.3113 49.2528C50.3071 49.3472 50.3935 49.4288 50.4799 49.4288C50.5662 49.4331 50.632 49.3515 50.6402 49.2571Z" fill="#010001"/>
<path d="M3.08639 179.975C5.58658 179.975 8.08678 179.975 10.587 179.975C17.3309 179.975 24.0708 179.975 30.8147 179.975C40.8114 179.975 50.8081 179.975 60.8047 179.975C73.0014 179.975 85.1981 179.975 97.3948 179.975C110.706 179.975 124.021 179.975 137.332 179.975C150.861 179.975 164.39 179.975 177.919 179.975C190.449 179.975 202.975 179.975 215.504 179.975C226.13 179.975 236.756 179.975 247.382 179.975C255.022 179.975 262.659 179.975 270.299 179.975C273.909 179.975 277.524 180.031 281.13 179.975C281.287 179.971 281.447 179.975 281.603 179.975C282.265 179.975 282.265 178.902 281.603 178.902C279.103 178.902 276.603 178.902 274.103 178.902C267.359 178.902 260.619 178.902 253.875 178.902C243.878 178.902 233.882 178.902 223.885 178.902C211.688 178.902 199.492 178.902 187.295 178.902C173.984 178.902 160.669 178.902 147.358 178.902C133.829 178.902 120.3 178.902 106.771 178.902C94.2408 178.902 81.7151 178.902 69.1853 178.902C58.5595 178.902 47.9337 178.902 37.3078 178.902C29.6674 178.902 22.0311 178.902 14.3907 178.902C10.7802 178.902 7.16566 178.846 3.55929 178.902C3.40302 178.906 3.24265 178.902 3.08639 178.902C2.42433 178.902 2.42433 179.975 3.08639 179.975Z" fill="#C7E0F4"/>
</svg>
