<svg width="24" height="24" viewBox="0 0 24 24" fill="none" xmlns="http://www.w3.org/2000/svg">
<g id="Arrow">
<path id="Shape" d="M11.159 18.3666C11.3629 18.5528 11.6792 18.5384 11.8654 18.3345C12.0515 18.1305 12.0371 17.8143 11.8332 17.6281L5.66535 11.9974H19.4961C19.7722 11.9974 19.9961 11.7735 19.9961 11.4974C19.9961 11.2212 19.7722 10.9974 19.4961 10.9974H5.66824L11.8332 5.36927C12.0371 5.18309 12.0515 4.86684 11.8654 4.66289C11.6792 4.45895 11.3629 4.44456 11.159 4.63074L4.24263 10.9448C4.10268 11.0725 4.02285 11.2401 4.00314 11.4132C3.99851 11.4406 3.99609 11.4687 3.99609 11.4974C3.99609 11.5242 3.99821 11.5506 4.00229 11.5763C4.02047 11.7522 4.10058 11.9229 4.24263 12.0526L11.159 18.3666Z" fill="#212121"/>
</g>
</svg>
