<svg width="156" height="63" viewBox="0 0 156 63" fill="none" xmlns="http://www.w3.org/2000/svg">
<g id="Group">
<g id="Group_2">
<g id="Group_3">
<path id="Vector" d="M48.5613 43.1141C48.5613 43.1097 48.5613 43.1097 48.5569 43.1097C48.4584 42.9983 48.3515 42.8913 48.2401 42.7928C48.2401 42.7888 48.2401 42.7888 48.2356 42.7888C48.1371 42.6774 48.0302 42.5705 47.9188 42.472C47.9188 42.4675 47.9188 42.4675 47.9143 42.4675C47.8159 42.3561 47.7089 42.2492 47.5975 42.1507C47.5975 42.1463 47.5975 42.1463 47.5931 42.1463C47.4946 42.0349 47.3876 41.9279 47.2762 41.8294C47.2762 41.8254 47.2762 41.8254 47.2718 41.8254C47.1733 41.714 47.0664 41.607 46.955 41.5086C46.955 41.5041 46.955 41.5041 46.9505 41.5041C46.852 41.3927 46.7451 41.2858 46.6337 41.1873C46.6337 41.1828 46.6337 41.1828 46.6292 41.1828C46.5308 41.0714 46.4238 40.9645 46.3124 40.866C46.3124 40.8616 46.3124 40.8616 46.308 40.8616C46.2095 40.7502 46.1025 40.6432 45.9911 40.5447C45.9911 40.5403 45.9911 40.5403 45.9867 40.5403C45.8882 40.4289 45.7813 40.3219 45.6699 40.2235C45.6699 40.219 45.6699 40.219 45.6658 40.219C45.3405 39.8634 44.9635 39.5595 44.5398 39.3153V7.59434C44.5398 7.42725 44.4582 7.34168 44.4582 7.17459C44.4582 6.92193 44.4582 6.83636 44.3727 6.66927C44.3727 6.5837 44.2911 6.41661 44.2911 6.33104C44.2056 6.07838 44.2056 5.99282 44.12 5.82572C44.0344 5.74016 43.9529 5.57306 43.9529 5.48749C43.7818 5.23483 43.7002 5.14927 43.6147 5.06774C43.5291 4.98217 43.4476 4.81508 43.362 4.72951L43.0238 4.39129C43.0238 4.34003 42.9596 4.28837 42.887 4.25406C42.8442 4.21128 42.7885 4.15558 42.7199 4.08696L42.7029 4.07001C42.7029 4.01875 42.6387 3.96709 42.5657 3.93319C42.5229 3.89041 42.4672 3.83471 42.3986 3.76609L42.3816 3.74874C42.3816 3.69748 42.3175 3.64582 42.2444 3.61151C42.2016 3.56873 42.1459 3.51303 42.0773 3.44442L42.0604 3.42747C42.0604 3.37621 41.9962 3.32454 41.9235 3.29024C41.8808 3.24745 41.8251 3.19175 41.7565 3.12314L41.7395 3.10619C41.7395 3.05493 41.6753 3.00327 41.6027 2.96896C41.5599 2.92618 41.5042 2.87048 41.4356 2.80187L41.4186 2.78451C41.4186 2.73325 41.3545 2.68159 41.2814 2.64729C41.2386 2.6045 41.1829 2.5488 41.1143 2.48019L41.0974 2.46284C41.0974 2.41158 41.0332 2.35991 40.9605 2.32561C40.9178 2.28282 40.8621 2.22712 40.7934 2.15851L40.7765 2.14156C40.7765 2.0903 40.7123 2.03864 40.6397 2.00474C40.5969 1.96195 40.5412 1.90625 40.4726 1.83764L40.4556 1.82069C40.4556 1.76943 40.3914 1.71777 40.3184 1.68346C40.2756 1.64068 40.2199 1.58498 40.1513 1.51637L40.1343 1.49901C40.1343 1.44775 40.0702 1.39609 39.9975 1.36178L39.8135 1.17774C39.8135 1.09621 39.6464 1.01064 39.5608 1.01064C39.5608 0.925078 39.4793 0.925076 39.4793 0.925076C39.3082 0.843547 39.2222 0.757981 39.0555 0.672416C38.9699 0.58685 38.8028 0.505322 38.6357 0.334191C38.5502 0.334191 38.3831 0.25266 38.2975 0.25266C38.1304 0.167095 37.8737 0.167096 37.7922 0.0815308C37.6251 0.0815308 37.5395 0.0815294 37.3684 0H36.8631C36.7816 0 36.7816 0 36.696 0C36.6104 0 36.5289 0 36.5289 0H35.938C35.8524 0.0815294 35.6853 0.0815308 35.5998 0.0815308C35.3471 0.167096 35.18 0.167095 35.0945 0.25266C34.9274 0.25266 34.8418 0.334189 34.7562 0.50532C34.5036 0.50532 34.422 0.58685 34.2509 0.672416C34.1694 0.757981 33.9983 0.843547 33.9127 0.925076C33.8312 1.01064 33.7456 1.09621 33.4929 1.17774C33.4118 1.34887 33.3258 1.4304 33.2403 1.51596C33.1547 1.60153 33.1547 1.68306 33.0732 1.68306L1.89102 40.4531C0.379495 42.3586 0.520759 45.0179 2.31077 46.6538C2.40925 46.7692 2.51621 46.8766 2.63205 46.9751C2.73053 47.0905 2.83748 47.1979 2.95332 47.2963C3.0518 47.4118 3.15876 47.5191 3.27459 47.6176C3.37307 47.733 3.48003 47.8404 3.59587 47.9389C3.69435 48.0543 3.80131 48.1617 3.91714 48.2602C4.01562 48.3756 4.12258 48.4829 4.23842 48.5814C4.3369 48.6969 4.44386 48.8042 4.55969 48.9027C4.65817 49.0181 4.76513 49.1255 4.88097 49.224C4.97945 49.3394 5.0864 49.4468 5.20224 49.5453C5.39476 49.7636 5.61756 49.969 5.86174 50.1535C6.70529 50.9115 7.71593 51.1641 8.72657 51.1641H32.0637V54.3587C32.0637 55.7548 32.6377 56.9794 33.5712 57.8185L33.5841 57.8314C33.6826 57.9383 33.7855 58.0413 33.8925 58.1397C33.8969 58.1442 33.901 58.1442 33.901 58.1482C33.9995 58.2596 34.1064 58.3625 34.2138 58.461L34.2267 58.4739C34.3252 58.5809 34.4281 58.6838 34.5351 58.7823C34.5395 58.7867 34.5435 58.7867 34.5435 58.7908C34.642 58.9022 34.749 59.0047 34.8563 59.1032L34.8692 59.1161C34.9677 59.223 35.0706 59.326 35.1776 59.4244C35.182 59.4289 35.1861 59.4289 35.1861 59.4329C35.2846 59.5443 35.3915 59.6472 35.4989 59.7453L35.5118 59.7582C35.6103 59.8652 35.7132 59.9681 35.8202 60.0666C35.8246 60.071 35.8286 60.071 35.8286 60.0751C35.9271 60.1865 36.0341 60.2894 36.141 60.3879L36.1539 60.4008C36.2524 60.5077 36.3553 60.6107 36.4623 60.7091C36.4667 60.7132 36.4708 60.7132 36.4708 60.7176C37.3103 61.6382 38.5264 62.2077 39.9091 62.2077C42.5213 62.2077 44.5422 60.1824 44.5422 57.5703V51.1641H45.3857C47.9979 51.1641 50.1047 49.1429 50.1047 46.5311C50.1027 45.1907 49.5074 43.9661 48.5613 43.1141ZM32.0625 25.065V38.6865H21.0875L32.0625 25.065Z" fill="#DEECF9"/>
<path id="Vector_2" opacity="0.1" d="M48.5613 43.1141C48.5613 43.1097 48.5613 43.1097 48.5569 43.1097C48.4584 42.9983 48.3515 42.8913 48.2401 42.7928C48.2401 42.7888 48.2401 42.7888 48.2356 42.7888C48.1371 42.6774 48.0302 42.5705 47.9188 42.472C47.9188 42.4675 47.9188 42.4675 47.9143 42.4675C47.8159 42.3561 47.7089 42.2492 47.5975 42.1507C47.5975 42.1463 47.5975 42.1463 47.5931 42.1463C47.4946 42.0349 47.3876 41.9279 47.2762 41.8294C47.2762 41.8254 47.2762 41.8254 47.2718 41.8254C47.1733 41.714 47.0664 41.607 46.955 41.5086C46.955 41.5041 46.955 41.5041 46.9505 41.5041C46.852 41.3927 46.7451 41.2858 46.6337 41.1873C46.6337 41.1828 46.6337 41.1828 46.6292 41.1828C46.5308 41.0714 46.4238 40.9645 46.3124 40.866C46.3124 40.8616 46.3124 40.8616 46.308 40.8616C46.2095 40.7502 46.1025 40.6432 45.9911 40.5447C45.9911 40.5403 45.9911 40.5403 45.9867 40.5403C45.8882 40.4289 45.7813 40.3219 45.6699 40.2235C45.6699 40.219 45.6699 40.219 45.6658 40.219C45.3405 39.8634 44.9635 39.5595 44.5398 39.3153V7.59434C44.5398 7.42725 44.4582 7.34168 44.4582 7.17459C44.4582 6.92193 44.4582 6.83636 44.3727 6.66927C44.3727 6.5837 44.2911 6.41661 44.2911 6.33104C44.2056 6.07838 44.2056 5.99282 44.12 5.82572C44.0344 5.74016 43.9529 5.57306 43.9529 5.48749C43.7818 5.23483 43.7002 5.14927 43.6147 5.06774C43.5291 4.98217 43.4476 4.81508 43.362 4.72951L43.0238 4.39129C43.0238 4.34003 42.9596 4.28837 42.887 4.25406C42.8442 4.21128 42.7885 4.15558 42.7199 4.08696L42.7029 4.07001C42.7029 4.01875 42.6387 3.96709 42.5657 3.93319C42.5229 3.89041 42.4672 3.83471 42.3986 3.76609L42.3816 3.74874C42.3816 3.69748 42.3175 3.64582 42.2444 3.61151C42.2016 3.56873 42.1459 3.51303 42.0773 3.44442L42.0604 3.42747C42.0604 3.37621 41.9962 3.32454 41.9235 3.29024C41.8808 3.24745 41.8251 3.19175 41.7565 3.12314L41.7395 3.10619C41.7395 3.05493 41.6753 3.00327 41.6027 2.96896C41.5599 2.92618 41.5042 2.87048 41.4356 2.80187L41.4186 2.78451C41.4186 2.73325 41.3545 2.68159 41.2814 2.64729C41.2386 2.6045 41.1829 2.5488 41.1143 2.48019L41.0974 2.46284C41.0974 2.41158 41.0332 2.35991 40.9605 2.32561C40.9178 2.28282 40.8621 2.22712 40.7934 2.15851L40.7765 2.14156C40.7765 2.0903 40.7123 2.03864 40.6397 2.00474C40.5969 1.96195 40.5412 1.90625 40.4726 1.83764L40.4556 1.82069C40.4556 1.76943 40.3914 1.71777 40.3184 1.68346C40.2756 1.64068 40.2199 1.58498 40.1513 1.51637L40.1343 1.49901C40.1343 1.44775 40.0702 1.39609 39.9975 1.36178L39.8135 1.17774C39.8135 1.09621 39.6464 1.01064 39.5608 1.01064C39.5608 0.925078 39.4793 0.925076 39.4793 0.925076C39.3082 0.843547 39.2222 0.757981 39.0555 0.672416C38.9699 0.58685 38.8028 0.505322 38.6357 0.334191C38.5502 0.334191 38.3831 0.25266 38.2975 0.25266C38.1304 0.167095 37.8737 0.167096 37.7922 0.0815308C37.6251 0.0815308 37.5395 0.0815294 37.3684 0H36.8631C36.7816 0 36.7816 0 36.696 0C36.6104 0 36.5289 0 36.5289 0H35.938C35.8524 0.0815294 35.6853 0.0815308 35.5998 0.0815308C35.3471 0.167096 35.18 0.167095 35.0945 0.25266C34.9274 0.25266 34.8418 0.334189 34.7562 0.50532C34.5036 0.50532 34.422 0.58685 34.2509 0.672416C34.1694 0.757981 33.9983 0.843547 33.9127 0.925076C33.8312 1.01064 33.7456 1.09621 33.4929 1.17774C33.4118 1.34887 33.3258 1.4304 33.2403 1.51596C33.1547 1.60153 33.1547 1.68306 33.0732 1.68306L1.89102 40.4531C0.379495 42.3586 0.520759 45.0179 2.31077 46.6538C2.40925 46.7692 2.51621 46.8766 2.63205 46.9751C2.73053 47.0905 2.83748 47.1979 2.95332 47.2963C3.0518 47.4118 3.15876 47.5191 3.27459 47.6176C3.37307 47.733 3.48003 47.8404 3.59587 47.9389C3.69435 48.0543 3.80131 48.1617 3.91714 48.2602C4.01562 48.3756 4.12258 48.4829 4.23842 48.5814C4.3369 48.6969 4.44386 48.8042 4.55969 48.9027C4.65817 49.0181 4.76513 49.1255 4.88097 49.224C4.97945 49.3394 5.0864 49.4468 5.20224 49.5453C5.39476 49.7636 5.61756 49.969 5.86174 50.1535C6.70529 50.9115 7.71593 51.1641 8.72657 51.1641H32.0637V54.3587C32.0637 55.7548 32.6377 56.9794 33.5712 57.8185L33.5841 57.8314C33.6826 57.9383 33.7855 58.0413 33.8925 58.1397C33.8969 58.1442 33.901 58.1442 33.901 58.1482C33.9995 58.2596 34.1064 58.3625 34.2138 58.461L34.2267 58.4739C34.3252 58.5809 34.4281 58.6838 34.5351 58.7823C34.5395 58.7867 34.5435 58.7867 34.5435 58.7908C34.642 58.9022 34.749 59.0047 34.8563 59.1032L34.8692 59.1161C34.9677 59.223 35.0706 59.326 35.1776 59.4244C35.182 59.4289 35.1861 59.4289 35.1861 59.4329C35.2846 59.5443 35.3915 59.6472 35.4989 59.7453L35.5118 59.7582C35.6103 59.8652 35.7132 59.9681 35.8202 60.0666C35.8246 60.071 35.8286 60.071 35.8286 60.0751C35.9271 60.1865 36.0341 60.2894 36.141 60.3879L36.1539 60.4008C36.2524 60.5077 36.3553 60.6107 36.4623 60.7091C36.4667 60.7132 36.4708 60.7132 36.4708 60.7176C37.3103 61.6382 38.5264 62.2077 39.9091 62.2077C42.5213 62.2077 44.5422 60.1824 44.5422 57.5703V51.1641H45.3857C47.9979 51.1641 50.1047 49.1429 50.1047 46.5311C50.1027 45.1907 49.5074 43.9661 48.5613 43.1141ZM32.0625 25.065V38.6865H21.0875L32.0625 25.065Z" fill="black"/>
</g>
<path id="Vector_3" d="M46.8909 43.3197C46.8909 45.9323 44.784 47.9548 42.171 47.9548H41.3287V54.3601C41.3287 56.9727 39.3062 58.9952 36.694 58.9952C34.0811 58.9952 32.0586 56.9727 32.0586 54.3601V47.9548H5.67977H5.59542H5.51107C4.49962 47.9548 3.48857 47.7021 2.64543 46.9433C0.53858 45.3422 0.28592 42.477 1.88745 40.4541L33.07 1.68686C33.1544 1.68686 33.1544 1.60251 33.2387 1.51855C33.3231 1.4342 33.4074 1.34985 33.4918 1.18114C33.7436 1.09678 33.828 1.01283 33.9123 0.928476C33.9967 0.844121 34.1654 0.759767 34.2498 0.675412C34.4185 0.591058 34.5028 0.506703 34.7547 0.506703C34.839 0.338398 34.9234 0.254043 35.0921 0.254043C35.1765 0.169689 35.3452 0.169686 35.5982 0.0853311C35.6826 0.0853311 35.8505 0.0853312 35.9344 0.000976562C36.1031 0.000976562 36.3562 0.000976562 36.5249 0.000976562C36.5249 0.000976562 36.6093 0.000976562 36.6936 0.000976562C36.778 0.000976562 36.778 0.000976562 36.8615 0.000976562C37.0302 0.000976562 37.2833 0.000976562 37.3677 0.000976562C37.5364 0.0853312 37.6207 0.0853311 37.7894 0.0853311C37.873 0.169686 38.126 0.169689 38.2948 0.254043C38.3791 0.254043 38.5478 0.338398 38.6322 0.338398C38.8009 0.506703 38.9688 0.591058 39.0531 0.675412C39.2218 0.759767 39.3062 0.844121 39.4749 0.928476C39.4749 0.928476 39.5593 0.928476 39.5593 1.01283C39.6436 1.01283 39.8123 1.09678 39.8123 1.18114C39.981 1.34985 40.0646 1.4342 40.1489 1.51855C40.2333 1.60251 40.3176 1.77121 40.402 1.85557C40.4864 1.93992 40.5707 2.02428 40.7394 2.27694C40.7394 2.36129 40.8238 2.53 40.9081 2.61436C40.9925 2.78266 40.9925 2.86702 41.0768 3.12008C41.0768 3.20403 41.16 3.37274 41.16 3.4571C41.2443 3.62581 41.2443 3.70976 41.2443 3.96282C41.2443 4.13153 41.3287 4.21588 41.3287 4.38419C41.3287 4.46854 41.3287 4.5529 41.3287 4.63725V38.6851H42.171C44.7844 38.6847 46.8909 40.7915 46.8909 43.3197ZM32.0586 17.868L15.2873 38.6847H32.0586V17.868Z" fill="#DEECF9"/>
</g>
<g id="Group_4">
<g id="Group_5">
<path id="Vector_4" d="M96.1919 12.5674C95.2329 11.1072 94.1278 9.75425 92.8948 8.55512C92.8476 8.50386 92.8008 8.45664 92.7491 8.41386C92.7362 8.40094 92.7233 8.38399 92.7063 8.37107C92.668 8.32829 92.6292 8.28551 92.5864 8.24676C92.4795 8.13133 92.3636 8.02397 92.2523 7.91257C92.2438 7.9041 92.2309 7.89118 92.2224 7.88674C92.184 7.8484 92.1453 7.80965 92.107 7.77131C92.094 7.75839 92.0811 7.74144 92.0642 7.72853C92.0254 7.68574 91.9871 7.64296 91.9443 7.60422C91.8373 7.48878 91.7215 7.38142 91.6101 7.27043C91.6016 7.26195 91.5887 7.24904 91.5802 7.2446C91.5415 7.20625 91.5032 7.16751 91.4648 7.12917C91.4519 7.11625 91.439 7.0993 91.422 7.08638C91.3837 7.0436 91.3449 7.00082 91.3021 6.96207C91.1952 6.84664 91.0794 6.73928 90.9684 6.62788C90.9599 6.6194 90.947 6.60649 90.9385 6.60205C90.8997 6.56371 90.8614 6.52496 90.8227 6.48662C90.8097 6.4737 90.7968 6.45675 90.7799 6.44383C90.7411 6.40105 90.7028 6.35827 90.66 6.31952C90.5531 6.20409 90.4372 6.09673 90.3258 5.98533C90.3173 5.97686 90.3044 5.96394 90.296 5.9595C90.2572 5.91672 90.2233 5.87838 90.1805 5.84407C90.1676 5.83115 90.1547 5.8142 90.1377 5.80129C86.7547 2.31126 82.34 0.00341797 77.3901 0.00341797C70.7313 0.00341797 65.2547 3.96445 61.7134 9.35548C58.0051 14.7509 56.0698 21.7479 55.9842 29.4985C56.0698 37.1675 58.0055 44.246 61.7134 49.6415C62.6684 51.0674 63.7602 52.4078 64.9762 53.5981C65.0319 53.6538 65.0876 53.705 65.1433 53.7607C65.1518 53.7652 65.1603 53.7737 65.1647 53.7821C65.2632 53.885 65.3661 53.9835 65.4646 54.082C65.5159 54.1377 65.5675 54.189 65.6188 54.2406C65.6745 54.2963 65.7302 54.3476 65.7859 54.4033C65.7944 54.4073 65.8028 54.4162 65.8073 54.4247C65.9058 54.5276 66.0087 54.6261 66.1072 54.7246C66.1584 54.7803 66.2101 54.8315 66.2613 54.8832C66.317 54.9389 66.3727 54.9901 66.4284 55.0458C66.4369 55.0503 66.4454 55.0587 66.4498 55.0672C66.5483 55.1701 66.6512 55.2686 66.7497 55.3671C66.801 55.4228 66.8526 55.4741 66.9039 55.5257C66.9596 55.5814 67.0153 55.6327 67.071 55.6884C67.0795 55.6928 67.0879 55.7013 67.0924 55.7098C67.1908 55.8127 67.2938 55.9112 67.3923 56.0097C67.4435 56.0654 67.4952 56.1166 67.5464 56.1683C67.6021 56.224 67.6578 56.2752 67.7135 56.3309C67.722 56.3354 67.7305 56.3438 67.7349 56.3523C67.8334 56.4552 67.9363 56.5537 68.0348 56.6522C71.3662 59.9792 75.661 62.2103 80.6028 62.2103C87.0901 62.2103 92.6526 58.1637 96.1939 52.8538C99.8167 47.4584 101.842 40.3802 101.842 32.7108C101.84 24.9599 99.8147 17.9629 96.1919 12.5674ZM85.2258 44.4175C82.7807 48.0404 80.0019 49.6415 77.3897 49.6415C75.9508 49.6415 74.4353 49.1576 72.9451 48.1126C72.8253 47.9584 72.7094 47.7958 72.594 47.6287C70.2345 44.0874 68.5474 38.6964 68.5474 32.71C68.5474 26.6421 70.2345 21.3326 72.594 17.7098C75.1246 14.1685 77.9895 12.4859 80.6016 12.567C81.9888 12.5242 83.4237 12.9783 84.8323 13.9502C84.9651 14.1302 85.0978 14.3098 85.2262 14.4983C87.5857 18.1211 89.2728 23.4306 89.2728 29.4985C89.2724 35.4848 87.5853 40.8763 85.2258 44.4175Z" fill="#DEECF9"/>
<path id="Vector_5" opacity="0.1" d="M96.1919 12.5674C95.2329 11.1072 94.1278 9.75425 92.8948 8.55512C92.8476 8.50386 92.8008 8.45664 92.7491 8.41386C92.7362 8.40094 92.7233 8.38399 92.7063 8.37107C92.668 8.32829 92.6292 8.28551 92.5864 8.24676C92.4795 8.13133 92.3636 8.02397 92.2523 7.91257C92.2438 7.9041 92.2309 7.89118 92.2224 7.88674C92.184 7.8484 92.1453 7.80965 92.107 7.77131C92.094 7.75839 92.0811 7.74144 92.0642 7.72853C92.0254 7.68574 91.9871 7.64296 91.9443 7.60422C91.8373 7.48878 91.7215 7.38142 91.6101 7.27043C91.6016 7.26195 91.5887 7.24904 91.5802 7.2446C91.5415 7.20625 91.5032 7.16751 91.4648 7.12917C91.4519 7.11625 91.439 7.0993 91.422 7.08638C91.3837 7.0436 91.3449 7.00082 91.3021 6.96207C91.1952 6.84664 91.0794 6.73928 90.9684 6.62788C90.9599 6.6194 90.947 6.60649 90.9385 6.60205C90.8997 6.56371 90.8614 6.52496 90.8227 6.48662C90.8097 6.4737 90.7968 6.45675 90.7799 6.44383C90.7411 6.40105 90.7028 6.35827 90.66 6.31952C90.5531 6.20409 90.4372 6.09673 90.3258 5.98533C90.3173 5.97686 90.3044 5.96394 90.296 5.9595C90.2572 5.91672 90.2233 5.87838 90.1805 5.84407C90.1676 5.83115 90.1547 5.8142 90.1377 5.80129C86.7547 2.31126 82.34 0.00341797 77.3901 0.00341797C70.7313 0.00341797 65.2547 3.96445 61.7134 9.35548C58.0051 14.7509 56.0698 21.7479 55.9842 29.4985C56.0698 37.1675 58.0055 44.246 61.7134 49.6415C62.6684 51.0674 63.7602 52.4078 64.9762 53.5981C65.0319 53.6538 65.0876 53.705 65.1433 53.7607C65.1518 53.7652 65.1603 53.7737 65.1647 53.7821C65.2632 53.885 65.3661 53.9835 65.4646 54.082C65.5159 54.1377 65.5675 54.189 65.6188 54.2406C65.6745 54.2963 65.7302 54.3476 65.7859 54.4033C65.7944 54.4073 65.8028 54.4162 65.8073 54.4247C65.9058 54.5276 66.0087 54.6261 66.1072 54.7246C66.1584 54.7803 66.2101 54.8315 66.2613 54.8832C66.317 54.9389 66.3727 54.9901 66.4284 55.0458C66.4369 55.0503 66.4454 55.0587 66.4498 55.0672C66.5483 55.1701 66.6512 55.2686 66.7497 55.3671C66.801 55.4228 66.8526 55.4741 66.9039 55.5257C66.9596 55.5814 67.0153 55.6327 67.071 55.6884C67.0795 55.6928 67.0879 55.7013 67.0924 55.7098C67.1908 55.8127 67.2938 55.9112 67.3923 56.0097C67.4435 56.0654 67.4952 56.1166 67.5464 56.1683C67.6021 56.224 67.6578 56.2752 67.7135 56.3309C67.722 56.3354 67.7305 56.3438 67.7349 56.3523C67.8334 56.4552 67.9363 56.5537 68.0348 56.6522C71.3662 59.9792 75.661 62.2103 80.6028 62.2103C87.0901 62.2103 92.6526 58.1637 96.1939 52.8538C99.8167 47.4584 101.842 40.3802 101.842 32.7108C101.84 24.9599 99.8147 17.9629 96.1919 12.5674ZM85.2258 44.4175C82.7807 48.0404 80.0019 49.6415 77.3897 49.6415C75.9508 49.6415 74.4353 49.1576 72.9451 48.1126C72.8253 47.9584 72.7094 47.7958 72.594 47.6287C70.2345 44.0874 68.5474 38.6964 68.5474 32.71C68.5474 26.6421 70.2345 21.3326 72.594 17.7098C75.1246 14.1685 77.9895 12.4859 80.6016 12.567C81.9888 12.5242 83.4237 12.9783 84.8323 13.9502C84.9651 14.1302 85.0978 14.3098 85.2262 14.4983C87.5857 18.1211 89.2728 23.4306 89.2728 29.4985C89.2724 35.4848 87.5853 40.8763 85.2258 44.4175Z" fill="black"/>
</g>
<path id="Vector_6" d="M55.9818 29.4988C56.0661 21.745 58.0042 14.75 61.713 9.3566C65.2519 3.96275 70.7301 0.00170898 77.3881 0.00170898C83.8781 0.00170898 89.4395 3.96275 92.9804 9.3566C96.6036 14.7505 98.6261 21.7454 98.6261 29.4988C98.6261 37.1678 96.6036 44.2471 92.9804 49.6406C89.4395 54.9505 83.8781 58.9955 77.3881 58.9955C70.7301 58.9955 65.2519 54.9505 61.713 49.6406C58.0042 44.2471 56.0661 37.1678 55.9818 29.4988ZM89.2704 29.4988C89.2704 23.4309 87.5853 18.1214 85.2254 14.497C82.7811 10.9577 80.001 9.27184 77.3877 9.3562C74.7747 9.27184 71.9094 10.9573 69.382 14.497C67.0221 18.1214 65.3358 23.4305 65.3358 29.4988C65.3358 35.4827 67.0221 40.8762 69.382 44.4158C71.9094 48.0395 74.7747 49.641 77.3877 49.641C80.0006 49.641 82.7811 48.0399 85.2254 44.4158C87.5853 40.8762 89.2704 35.4827 89.2704 29.4988Z" fill="#DEECF9"/>
</g>
<g id="Group_6">
<g id="Group_7">
<path id="Vector_7" d="M153.608 43.1141C153.608 43.1097 153.608 43.1097 153.604 43.1097C153.501 42.9983 153.394 42.8913 153.287 42.7928C153.287 42.7888 153.287 42.7888 153.282 42.7888C153.179 42.6774 153.072 42.5704 152.965 42.472C152.965 42.4675 152.965 42.4675 152.961 42.4675C152.858 42.3561 152.751 42.2492 152.644 42.1507C152.644 42.1462 152.644 42.1462 152.64 42.1462C152.537 42.0348 152.43 41.9279 152.323 41.8294C152.323 41.8254 152.323 41.8254 152.318 41.8254C152.216 41.714 152.109 41.607 152.002 41.5085C152.002 41.5041 152.002 41.5041 151.997 41.5041C151.895 41.3927 151.787 41.2857 151.68 41.1873C151.68 41.1828 151.68 41.1828 151.676 41.1828C151.573 41.0714 151.466 40.9645 151.359 40.866C151.359 40.8615 151.359 40.8615 151.355 40.8615C151.252 40.7501 151.145 40.6432 151.038 40.5447C151.038 40.5403 151.038 40.5403 151.034 40.5403C150.931 40.4289 150.824 40.3219 150.717 40.2234C150.717 40.219 150.717 40.219 150.712 40.219C150.387 39.8634 150.006 39.5555 149.582 39.3153V7.59434C149.582 7.42725 149.5 7.34168 149.5 7.17458C149.5 6.92192 149.5 6.83636 149.415 6.66926C149.415 6.5837 149.333 6.4166 149.333 6.33104C149.248 6.07838 149.248 5.99281 149.162 5.82572C149.081 5.74015 148.995 5.57306 148.995 5.48749C148.828 5.23483 148.742 5.14927 148.657 5.06774C148.571 4.98217 148.49 4.81508 148.404 4.72951L148.066 4.39129C148.066 4.34003 148.002 4.28836 147.929 4.25406C147.886 4.21127 147.83 4.15558 147.762 4.08696L147.745 4.07001C147.745 4.01875 147.681 3.96709 147.607 3.93319C147.565 3.8904 147.509 3.83471 147.44 3.76609L147.423 3.74874C147.423 3.69748 147.359 3.64582 147.287 3.61151C147.244 3.56873 147.188 3.51303 147.12 3.44442L147.103 3.42746C147.103 3.37621 147.038 3.32454 146.965 3.29023C146.923 3.24745 146.867 3.19175 146.798 3.12314L146.781 3.10619C146.781 3.05493 146.717 3.00327 146.644 2.96896C146.602 2.92618 146.546 2.87048 146.477 2.80187L146.46 2.78451C146.46 2.73325 146.396 2.68159 146.324 2.64728C146.281 2.6045 146.225 2.5488 146.157 2.48019L146.14 2.46283C146.14 2.41158 146.075 2.35991 146.003 2.32561C145.96 2.28282 145.904 2.22712 145.836 2.15851L145.818 2.14156C145.818 2.0903 145.754 2.03864 145.681 2.00474C145.638 1.96195 145.583 1.90625 145.514 1.83764L145.497 1.82069C145.497 1.76943 145.433 1.71777 145.36 1.68346C145.317 1.64068 145.262 1.58498 145.193 1.51637L145.176 1.49901C145.176 1.44775 145.112 1.39609 145.039 1.36178L144.855 1.17774C144.855 1.09621 144.688 1.01064 144.602 1.01064C144.602 0.925078 144.517 0.925076 144.517 0.925076C144.35 0.843546 144.264 0.757981 144.097 0.672416C144.011 0.58685 143.844 0.505322 143.677 0.334191C143.592 0.334191 143.424 0.25266 143.339 0.25266C143.172 0.167095 142.919 0.167096 142.834 0.0815308C142.662 0.0815308 142.581 0.0815294 142.41 0H141.904C141.823 0 141.823 0 141.737 0C141.656 0 141.57 0 141.57 0H140.979C140.894 0.0815294 140.727 0.0815308 140.641 0.0815308C140.389 0.167096 140.221 0.167095 140.136 0.25266C139.969 0.25266 139.883 0.334189 139.798 0.50532C139.549 0.50532 139.463 0.58685 139.292 0.672416C139.211 0.757981 139.04 0.843546 138.958 0.925076C138.873 1.01064 138.787 1.09621 138.534 1.17774C138.449 1.34887 138.367 1.4304 138.282 1.51596C138.196 1.60153 138.196 1.68306 138.115 1.68306L106.932 40.4531C105.421 42.3585 105.562 45.0179 107.352 46.6538C107.451 46.7692 107.558 46.8766 107.673 46.975C107.772 47.0905 107.879 47.1978 107.995 47.2963C108.093 47.4117 108.2 47.5191 108.316 47.6176C108.414 47.733 108.521 47.8404 108.637 47.9389C108.736 48.0543 108.843 48.1617 108.959 48.2601C109.057 48.3756 109.164 48.4829 109.28 48.5814C109.378 48.6968 109.485 48.8042 109.601 48.9027C109.7 49.0181 109.807 49.1255 109.922 49.224C110.021 49.3394 110.128 49.4468 110.244 49.5452C110.436 49.7636 110.659 49.969 110.903 50.1535C111.747 50.9115 112.757 51.1641 113.768 51.1641H137.105V54.3587C137.105 55.7503 137.679 56.9793 138.613 57.8184C138.617 57.8229 138.621 57.8229 138.621 57.8269C138.72 57.9383 138.827 58.0412 138.933 58.1397L138.946 58.1526C139.045 58.2596 139.148 58.3625 139.255 58.461C139.259 58.4654 139.263 58.4654 139.263 58.4695C139.362 58.5809 139.469 58.6834 139.576 58.7819L139.589 58.7948C139.687 58.9017 139.79 59.0047 139.897 59.1031C139.902 59.1076 139.906 59.1076 139.906 59.1116C140.004 59.223 140.111 59.3259 140.218 59.4244L140.231 59.4373C140.33 59.5443 140.433 59.6472 140.539 59.7457C140.544 59.7497 140.548 59.7497 140.548 59.7542C140.646 59.8656 140.753 59.9681 140.861 60.0666L140.874 60.0795C140.972 60.1864 141.075 60.2893 141.182 60.3878C141.186 60.3923 141.19 60.3923 141.19 60.3963C141.289 60.5077 141.396 60.6106 141.503 60.7087L141.516 60.7216C142.355 61.6423 143.567 62.2073 144.95 62.2073C147.562 62.2073 149.583 60.182 149.583 57.5698V51.1637H150.427C153.043 51.1637 155.15 49.1424 155.15 46.5307C155.149 45.1907 154.554 43.9661 153.608 43.1141ZM137.105 25.065V38.6865H126.13L137.105 25.065Z" fill="#DEECF9"/>
<path id="Vector_8" opacity="0.1" d="M153.608 43.1141C153.608 43.1097 153.608 43.1097 153.604 43.1097C153.501 42.9983 153.394 42.8913 153.287 42.7928C153.287 42.7888 153.287 42.7888 153.282 42.7888C153.179 42.6774 153.072 42.5704 152.965 42.472C152.965 42.4675 152.965 42.4675 152.961 42.4675C152.858 42.3561 152.751 42.2492 152.644 42.1507C152.644 42.1462 152.644 42.1462 152.64 42.1462C152.537 42.0348 152.43 41.9279 152.323 41.8294C152.323 41.8254 152.323 41.8254 152.318 41.8254C152.216 41.714 152.109 41.607 152.002 41.5085C152.002 41.5041 152.002 41.5041 151.997 41.5041C151.895 41.3927 151.787 41.2857 151.68 41.1873C151.68 41.1828 151.68 41.1828 151.676 41.1828C151.573 41.0714 151.466 40.9645 151.359 40.866C151.359 40.8615 151.359 40.8615 151.355 40.8615C151.252 40.7501 151.145 40.6432 151.038 40.5447C151.038 40.5403 151.038 40.5403 151.034 40.5403C150.931 40.4289 150.824 40.3219 150.717 40.2234C150.717 40.219 150.717 40.219 150.712 40.219C150.387 39.8634 150.006 39.5555 149.582 39.3153V7.59434C149.582 7.42725 149.5 7.34168 149.5 7.17458C149.5 6.92192 149.5 6.83636 149.415 6.66926C149.415 6.5837 149.333 6.4166 149.333 6.33104C149.248 6.07838 149.248 5.99281 149.162 5.82572C149.081 5.74015 148.995 5.57306 148.995 5.48749C148.828 5.23483 148.742 5.14927 148.657 5.06774C148.571 4.98217 148.49 4.81508 148.404 4.72951L148.066 4.39129C148.066 4.34003 148.002 4.28836 147.929 4.25406C147.886 4.21127 147.83 4.15558 147.762 4.08696L147.745 4.07001C147.745 4.01875 147.681 3.96709 147.607 3.93319C147.565 3.8904 147.509 3.83471 147.44 3.76609L147.423 3.74874C147.423 3.69748 147.359 3.64582 147.287 3.61151C147.244 3.56873 147.188 3.51303 147.12 3.44442L147.103 3.42746C147.103 3.37621 147.038 3.32454 146.965 3.29023C146.923 3.24745 146.867 3.19175 146.798 3.12314L146.781 3.10619C146.781 3.05493 146.717 3.00327 146.644 2.96896C146.602 2.92618 146.546 2.87048 146.477 2.80187L146.46 2.78451C146.46 2.73325 146.396 2.68159 146.324 2.64728C146.281 2.6045 146.225 2.5488 146.157 2.48019L146.14 2.46283C146.14 2.41158 146.075 2.35991 146.003 2.32561C145.96 2.28282 145.904 2.22712 145.836 2.15851L145.818 2.14156C145.818 2.0903 145.754 2.03864 145.681 2.00474C145.638 1.96195 145.583 1.90625 145.514 1.83764L145.497 1.82069C145.497 1.76943 145.433 1.71777 145.36 1.68346C145.317 1.64068 145.262 1.58498 145.193 1.51637L145.176 1.49901C145.176 1.44775 145.112 1.39609 145.039 1.36178L144.855 1.17774C144.855 1.09621 144.688 1.01064 144.602 1.01064C144.602 0.925078 144.517 0.925076 144.517 0.925076C144.35 0.843546 144.264 0.757981 144.097 0.672416C144.011 0.58685 143.844 0.505322 143.677 0.334191C143.592 0.334191 143.424 0.25266 143.339 0.25266C143.172 0.167095 142.919 0.167096 142.834 0.0815308C142.662 0.0815308 142.581 0.0815294 142.41 0H141.904C141.823 0 141.823 0 141.737 0C141.656 0 141.57 0 141.57 0H140.979C140.894 0.0815294 140.727 0.0815308 140.641 0.0815308C140.389 0.167096 140.221 0.167095 140.136 0.25266C139.969 0.25266 139.883 0.334189 139.798 0.50532C139.549 0.50532 139.463 0.58685 139.292 0.672416C139.211 0.757981 139.04 0.843546 138.958 0.925076C138.873 1.01064 138.787 1.09621 138.534 1.17774C138.449 1.34887 138.367 1.4304 138.282 1.51596C138.196 1.60153 138.196 1.68306 138.115 1.68306L106.932 40.4531C105.421 42.3585 105.562 45.0179 107.352 46.6538C107.451 46.7692 107.558 46.8766 107.673 46.975C107.772 47.0905 107.879 47.1978 107.995 47.2963C108.093 47.4117 108.2 47.5191 108.316 47.6176C108.414 47.733 108.521 47.8404 108.637 47.9389C108.736 48.0543 108.843 48.1617 108.959 48.2601C109.057 48.3756 109.164 48.4829 109.28 48.5814C109.378 48.6968 109.485 48.8042 109.601 48.9027C109.7 49.0181 109.807 49.1255 109.922 49.224C110.021 49.3394 110.128 49.4468 110.244 49.5452C110.436 49.7636 110.659 49.969 110.903 50.1535C111.747 50.9115 112.757 51.1641 113.768 51.1641H137.105V54.3587C137.105 55.7503 137.679 56.9793 138.613 57.8184C138.617 57.8229 138.621 57.8229 138.621 57.8269C138.72 57.9383 138.827 58.0412 138.933 58.1397L138.946 58.1526C139.045 58.2596 139.148 58.3625 139.255 58.461C139.259 58.4654 139.263 58.4654 139.263 58.4695C139.362 58.5809 139.469 58.6834 139.576 58.7819L139.589 58.7948C139.687 58.9017 139.79 59.0047 139.897 59.1031C139.902 59.1076 139.906 59.1076 139.906 59.1116C140.004 59.223 140.111 59.3259 140.218 59.4244L140.231 59.4373C140.33 59.5443 140.433 59.6472 140.539 59.7457C140.544 59.7497 140.548 59.7497 140.548 59.7542C140.646 59.8656 140.753 59.9681 140.861 60.0666L140.874 60.0795C140.972 60.1864 141.075 60.2893 141.182 60.3878C141.186 60.3923 141.19 60.3923 141.19 60.3963C141.289 60.5077 141.396 60.6106 141.503 60.7087L141.516 60.7216C142.355 61.6423 143.567 62.2073 144.95 62.2073C147.562 62.2073 149.583 60.182 149.583 57.5698V51.1637H150.427C153.043 51.1637 155.15 49.1424 155.15 46.5307C155.149 45.1907 154.554 43.9661 153.608 43.1141ZM137.105 25.065V38.6865H126.13L137.105 25.065Z" fill="black"/>
</g>
<path id="Vector_9" d="M151.935 43.3197C151.935 45.9323 149.828 47.9548 147.215 47.9548H146.372V54.3601C146.372 56.9727 144.349 58.9952 141.738 58.9952C139.125 58.9952 137.103 56.9727 137.103 54.3601V47.9548H110.724H110.639H110.555C109.543 47.9548 108.532 47.7021 107.689 46.9433C105.582 45.3422 105.329 42.477 106.932 40.4541L138.113 1.68686C138.197 1.68686 138.197 1.60251 138.282 1.51855C138.366 1.4342 138.45 1.34985 138.535 1.18114C138.788 1.09678 138.872 1.01283 138.957 0.928476C139.041 0.844121 139.21 0.759767 139.294 0.675412C139.463 0.591058 139.547 0.506703 139.798 0.506703C139.882 0.338398 139.967 0.254043 140.136 0.254043C140.22 0.169689 140.389 0.169686 140.642 0.0853311C140.726 0.0853311 140.895 0.0853312 140.979 0.000976562C141.148 0.000976562 141.401 0.000976562 141.57 0.000976562C141.57 0.000976562 141.654 0.000976562 141.738 0.000976562C141.823 0.000976562 141.823 0.000976562 141.905 0.000976562C142.074 0.000976562 142.327 0.000976562 142.411 0.000976562C142.58 0.0853312 142.664 0.0853311 142.833 0.0853311C142.917 0.169686 143.17 0.169689 143.339 0.254043C143.423 0.254043 143.592 0.338398 143.676 0.338398C143.845 0.506703 144.012 0.591058 144.096 0.675412C144.265 0.759767 144.349 0.844121 144.518 0.928476C144.518 0.928476 144.602 0.928476 144.602 1.01283C144.687 1.01283 144.855 1.09678 144.855 1.18114C145.024 1.34985 145.108 1.4342 145.193 1.51855C145.277 1.60251 145.361 1.77121 145.446 1.85557C145.53 1.93992 145.615 2.02428 145.783 2.27694C145.783 2.36129 145.868 2.53 145.952 2.61436C146.036 2.78266 146.036 2.86702 146.121 3.12008C146.121 3.20403 146.203 3.37274 146.203 3.4571C146.287 3.62581 146.287 3.70976 146.287 3.96282C146.287 4.13153 146.372 4.21588 146.372 4.38419C146.372 4.46854 146.372 4.5529 146.372 4.63725V38.6851H147.215C149.828 38.6847 151.935 40.7915 151.935 43.3197ZM137.102 17.868L120.33 38.6847H137.102V17.868Z" fill="#DEECF9"/>
</g>
</g>
</svg>
