<svg width="14" height="14" viewBox="0 0 14 14" fill="none" xmlns="http://www.w3.org/2000/svg">
<g id="teenyicons:github-solid" clipPath="url(#clip0_741_56614)">
<g id="Group">
<path id="Vector" d="M8.69906 2.10431C7.58145 1.84461 6.41918 1.84461 5.30157 2.10431C4.65609 1.70842 4.16329 1.52648 3.80489 1.44968C3.65192 1.41515 3.4954 1.39889 3.3386 1.40122C3.26725 1.40315 3.19624 1.41172 3.12649 1.42682L3.11734 1.42865L3.11369 1.43048H3.11094L3.2362 1.87025L3.11094 1.43139C3.04671 1.44954 2.98723 1.48154 2.93669 1.52514C2.88614 1.56873 2.84576 1.62286 2.81837 1.68373C2.54863 2.28781 2.49724 2.96686 2.673 3.60465C2.21781 4.15629 1.96975 4.84968 1.97174 5.56488C1.97174 6.98476 2.39049 7.93928 3.10454 8.55276C3.60466 8.98248 4.21174 9.21105 4.82066 9.34179C4.72009 9.62065 4.69449 9.91596 4.7146 10.2177V10.7644C4.34249 10.8421 4.08466 10.8174 3.90089 10.7571C3.6714 10.6812 3.49494 10.5285 3.3258 10.3091C3.23738 10.1908 3.15499 10.0682 3.07894 9.94156L3.02683 9.85653C2.96102 9.74711 2.89274 9.6392 2.82203 9.53288C2.64831 9.27596 2.39049 8.95413 1.97357 8.84442L1.53106 8.72831L1.29883 9.61333L1.74134 9.72945C1.81449 9.74773 1.90957 9.81631 2.06591 10.0458C2.12351 10.1308 2.17746 10.2195 2.23963 10.3219L2.3018 10.4225C2.38774 10.5614 2.48649 10.715 2.60077 10.865C2.83209 11.1667 3.14751 11.4712 3.61563 11.6257C3.93563 11.7317 4.29952 11.7573 4.7146 11.6933V13.4003C4.7146 13.5215 4.76276 13.6378 4.8485 13.7236C4.93423 13.8093 5.0505 13.8574 5.17174 13.8574H8.82889C8.95013 13.8574 9.06641 13.8093 9.15214 13.7236C9.23787 13.6378 9.28603 13.5215 9.28603 13.4003V10.1427C9.28603 9.85471 9.27323 9.59048 9.19186 9.34453C9.79803 9.21653 10.4005 8.98796 10.8979 8.55825C11.6111 7.94019 12.0289 6.97653 12.0289 5.54842V5.54751C12.0266 4.83817 11.7784 4.15156 11.3267 3.60465C11.5023 2.96714 11.4509 2.28846 11.1813 1.68465C11.1542 1.62371 11.114 1.56945 11.0636 1.5257C11.0132 1.48195 10.9538 1.44976 10.8897 1.43139L10.7644 1.87025C10.8897 1.43139 10.8888 1.43139 10.8879 1.43139L10.886 1.43048L10.8824 1.42865L10.8741 1.42682C10.8516 1.42095 10.8287 1.41637 10.8056 1.41311C10.7577 1.40612 10.7095 1.40215 10.6611 1.40122C10.5043 1.39891 10.3478 1.41517 10.1948 1.44968C9.83735 1.52648 9.34455 1.70842 8.69906 2.10431Z" fill="#003681"/>
</g>
</g>
<defs>
<clipPath id="clip0_741_56614">
<rect width="13.7143" height="13.7143" fill="white" transform="translate(0.142578 0.143066)"/>
</clipPath>
</defs>
</svg>
