<svg width="14" height="14" viewBox="0 0 14 14" fill="none" xmlns="http://www.w3.org/2000/svg">
<g id="grommet-icons:linkedin-option">
<path id="Vector" fill-rule="evenodd" clip-rule="evenodd" d="M12.7349 12.7144H10.3623V9.00242C10.3623 8.11671 10.3474 6.97842 9.12973 6.97842C7.89544 6.97842 7.70687 7.94299 7.70687 8.93842V12.7144H5.33658V5.08014H7.61087V6.12414H7.64401C7.96001 5.52414 8.7343 4.89099 9.88858 4.89099C12.2909 4.89099 12.7343 6.47157 12.7343 8.52757V12.7144H12.7349ZM2.66173 4.03785C2.48091 4.038 2.30184 4.0025 2.13476 3.93337C1.96768 3.86425 1.81587 3.76285 1.68801 3.635C1.56015 3.50714 1.45876 3.35533 1.38964 3.18825C1.32051 3.02117 1.28501 2.84209 1.28516 2.66128C1.28516 2.38918 1.36583 2.12319 1.51698 1.89693C1.66812 1.67068 1.88296 1.49431 2.13432 1.39013C2.38569 1.28595 2.66229 1.25863 2.92918 1.31163C3.19607 1.36464 3.44125 1.49557 3.63373 1.6879C3.82621 1.88022 3.95736 2.12529 4.01058 2.39213C4.0638 2.65898 4.03671 2.93561 3.93274 3.18706C3.82877 3.43851 3.65258 3.65349 3.42645 3.80483C3.20032 3.95616 2.9344 4.03705 2.6623 4.03728L2.66173 4.03785ZM3.84858 12.7144H1.47373V5.08014H3.84858V12.7144Z" fill="#003681"/>
</g>
</svg>
