<svg width="14" height="14" viewBox="0 0 14 14" fill="none" xmlns="http://www.w3.org/2000/svg">
<g id="akar-icons:twitter-fill" clipPath="url(#clip0_741_56609)">
<g id="Group">
<path id="Vector" d="M13.6526 2.96417C13.1754 3.17559 12.6629 3.31845 12.124 3.38302C12.68 3.05033 13.096 2.52672 13.2943 1.90988C12.7719 2.22016 12.2002 2.43856 11.604 2.55559C11.2031 2.12752 10.6721 1.84378 10.0933 1.74844C9.51464 1.65309 8.92065 1.75148 8.40358 2.02831C7.88652 2.30515 7.47532 2.74494 7.23382 3.27943C6.99232 3.81391 6.93404 4.41317 7.06802 4.98417C6.00956 4.93102 4.97409 4.65591 4.02883 4.17668C3.08357 3.69746 2.24964 3.02483 1.58116 2.20245C1.35259 2.59674 1.22116 3.05388 1.22116 3.54074C1.22091 3.97902 1.32884 4.41059 1.53538 4.79716C1.74192 5.18372 2.04068 5.51333 2.40516 5.75674C1.98246 5.74329 1.56909 5.62907 1.19945 5.42359V5.45788C1.19941 6.07259 1.41204 6.66838 1.80127 7.14416C2.1905 7.61995 2.73235 7.94641 3.33488 8.06817C2.94275 8.17429 2.53164 8.18992 2.13259 8.11388C2.30259 8.6428 2.63373 9.10532 3.07966 9.4367C3.52559 9.76807 4.06397 9.9517 4.61945 9.96188C3.6765 10.7021 2.51196 11.1036 1.31316 11.1019C1.10081 11.1019 0.888635 11.0895 0.677734 11.0647C1.89458 11.8471 3.31107 12.2624 4.75773 12.2607C9.65488 12.2607 12.332 8.20474 12.332 4.68702C12.332 4.57274 12.3292 4.45731 12.324 4.34302C12.8448 3.96644 13.2943 3.50011 13.6514 2.96588L13.6526 2.96417Z" fill="#003681"/>
</g>
</g>
<defs>
<clipPath id="clip0_741_56609">
<rect width="13.7143" height="13.7143" fill="white" transform="translate(0.142578 0.143066)"/>
</clipPath>
</defs>
</svg>
